<?xml version="1.0" encoding="iso-8859-1"?>
<!-- Generator: Adobe Illustrator 19.0.0, SVG Export Plug-In . SVG Version: 6.00 Build 0)  -->
<svg version="1.1" id="Capa_1" xmlns="http://www.w3.org/2000/svg" xmlns:xlink="http://www.w3.org/1999/xlink" x="0px" y="0px"
	 viewBox="0 0 512 512" style="enable-background:new 0 0 512 512;" xml:space="preserve">
<path style="fill:#FFFFFF;" d="M256,434.28c-98.304,0-178.28-79.976-178.28-178.28S157.696,77.72,256,77.72
	S434.28,157.696,434.28,256S354.304,434.28,256,434.28z"/>
<g>
	<path style="fill:#999999;" d="M256,85.72c93.896,0,170.28,76.392,170.28,170.28S349.896,426.28,256,426.28
		S85.72,349.896,85.72,256S162.104,85.72,256,85.72 M256,69.72c-102.88,0-186.28,83.4-186.28,186.28S153.12,442.28,256,442.28
		S442.28,358.88,442.28,256S358.88,69.72,256,69.72L256,69.72z"/>
	<path style="fill:#999999;" d="M256,40c-0.04,0-0.072,0-0.112,0c-0.016,0-0.016,0-0.032,0c-0.032,0-0.064,0-0.096,0
		c-0.008,0-0.016,0-0.024,0c-0.04,0-0.072,0-0.112,0c-0.008,0-0.024,0-0.032,0c-0.032,0-0.056,0-0.088,0h-0.024
		c-0.04,0-0.072,0-0.112,0c-0.008,0-0.016,0-0.024,0c-0.032,0-0.064,0-0.096,0c-0.008,0-0.016,0-0.024,0c-0.04,0-0.072,0-0.112,0
		c-0.008,0,0,0-0.008,0c-0.032,0-0.064,0-0.104,0c-0.016,0-0.016,0-0.032,0c-0.032,0-0.072,0-0.104,0h-0.008
		c-0.04,0-0.072,0-0.112,0h-0.024c-0.032,0-0.064,0-0.096,0c-0.008,0-0.008,0-0.008,0c-0.048,0-0.08,0-0.12,0
		c-0.008,0-0.024,0-0.032,0c-0.032,0-0.064,0-0.088,0c-0.008,0-0.016,0-0.024,0c-0.04,0-0.072,0-0.112,0c-0.016,0-0.008,0-0.024,0
		c-0.032,0-0.064,0-0.096,0c-0.008,0-0.016,0-0.024,0c-0.04,0-0.072,0-0.112,0c-0.008,0-0.008,0-0.016,0c-0.032,0-0.064,0-0.096,0
		c-0.016,0-0.016,0-0.032,0c-0.032,0-0.072,0-0.104,0h-0.008c-0.04,0-0.072,0-0.112,0c-0.008,0-0.016,0-0.024,0
		c-0.032,0-0.064,0-0.096,0c-0.008,0-0.016,0-0.024,0c-0.04,0-0.072,0-0.112,0c-0.008,0-0.016,0-0.024,0c-0.032,0-0.064,0-0.096,0
		c-0.008,0-0.016,0-0.024,0c-0.04,0-0.08,0-0.112,0h-0.016c-0.032,0-0.064,0-0.096,0c-0.008,0-0.024,0-0.032,0
		c-0.04,0-0.072,0-0.112,0h-0.008c-0.04,0-0.072,0-0.104,0c-0.016,0-0.016,0-0.032,0c-0.032,0-0.072,0-0.104,0h-0.008
		c-0.04,0-0.072,0-0.112,0c-0.008,0-0.024,0-0.024,0c-0.032,0-0.064,0-0.096,0c-0.008,0-0.008,0-0.008,0c-0.048,0-0.08,0-0.12,0
		h-0.024c-0.032,0-0.064,0-0.096,0c-0.008,0-0.016,0-0.024,0c-0.04,0-0.072,0-0.112,0c-0.008,0-0.008,0-0.016,0
		c-0.032,0-0.064,0-0.096,0c-0.008,0-0.016,0-0.024,0c-0.04,0-0.08,0-0.12,0l0,0c-0.04,0-0.08,0-0.112,0c-0.008,0-0.016,0-0.024,0
		c-0.04,0-0.072,0-0.112,0l0,0c-0.04,0-0.08,0-0.112,0c-0.008,0-0.016,0-0.024,0c-0.032,0-0.064,0-0.104,0h-0.016
		c-0.04,0-0.08,0-0.112,0h-0.016c-0.032,0-0.072,0-0.104,0c-0.008,0-0.008,0-0.016,0c-0.04,0-0.08,0-0.12,0l0,0
		c-0.04,0-0.072,0-0.112,0c-0.008,0-0.008,0-0.016,0c-0.08,0-0.152,0-0.232,0.008c-0.008,0-0.008,0-0.016,0
		c-0.08,0-0.16,0.008-0.232,0.008c-0.008,0-0.008,0-0.016,0c-0.032,0-0.072,0-0.104,0h-0.008c-0.04,0-0.08,0-0.12,0h-0.016
		c-0.032,0-0.072,0-0.104,0c-0.008,0-0.008,0-0.016,0c-0.08,0-0.16,0.008-0.24,0.008c-0.008,0-0.008,0-0.008,0
		c-0.088,0-0.168,0.008-0.24,0.008c-0.008,0-0.008,0-0.016,0c-0.08,0-0.16,0.008-0.24,0.008c-0.008,0-0.008,0-0.008,0
		c-0.04,0-0.072,0-0.112,0h-0.008c-0.04,0-0.08,0-0.12,0h-0.008c-0.04,0-0.08,0-0.12,0c-0.008,0,0,0-0.008,0
		c-0.08,0-0.16,0.008-0.24,0.008h-0.008c-0.08,0-0.16,0.008-0.24,0.008c-0.008,0-0.008,0-0.016,0c-0.08,0-0.16,0.008-0.24,0.008
		h-0.008c-0.04,0-0.08,0-0.12,0.008l0,0c-0.08,0-0.168,0.008-0.248,0.008l0,0c-0.08,0-0.168,0.008-0.248,0.008h-0.008
		c-0.08,0-0.168,0.008-0.248,0.008l0,0c-0.208,0.008-0.416,0.016-0.624,0.024l0,0c-2.16,0.096-4.312,0.216-6.456,0.376l0.584,7.976
		C245.688,48.192,250.872,48,256,48V40L256,40L256,40z M224.112,42.336c-0.224,0.032-0.44,0.064-0.664,0.096
		c-0.008,0-0.016,0-0.016,0c-0.056,0.008-0.104,0.016-0.152,0.024h-0.008c-0.024,0-0.048,0.008-0.072,0.008
		c-0.008,0-0.016,0-0.032,0.008c-0.04,0.008-0.088,0.016-0.128,0.016c0,0-0.016,0-0.024,0c-0.024,0-0.04,0.008-0.064,0.008
		c-0.016,0-0.032,0.008-0.04,0.008c-0.024,0.008-0.048,0.008-0.072,0.008s-0.048,0.008-0.072,0.008s-0.032,0.008-0.056,0.008
		c-0.016,0-0.04,0.008-0.056,0.008c-0.024,0-0.032,0.008-0.056,0.008c-0.032,0.008-0.064,0.008-0.096,0.016
		c-0.016,0-0.032,0.008-0.048,0.008c-0.024,0-0.048,0.008-0.064,0.008c-0.016,0-0.032,0.008-0.04,0.008
		c-0.032,0.008-0.064,0.008-0.096,0.016c-0.016,0-0.024,0-0.04,0.008c-0.024,0-0.048,0.008-0.072,0.008
		c-0.008,0-0.032,0.008-0.04,0.008c-0.032,0.008-0.064,0.008-0.104,0.016c-0.016,0-0.016,0-0.032,0.008
		c-0.032,0.008-0.056,0.008-0.088,0.016c-0.008,0-0.024,0-0.032,0.008c-0.04,0.008-0.072,0.008-0.112,0.016c-0.008,0,0,0-0.008,0
		c-0.032,0.008-0.064,0.008-0.104,0.016c-0.008,0-0.016,0-0.024,0c-0.04,0.008-0.072,0.016-0.112,0.016c-0.008,0,0,0-0.008,0
		c-0.04,0.008-0.072,0.008-0.112,0.016c-0.008,0-0.016,0-0.016,0c-0.08,0.016-0.152,0.024-0.232,0.04c-0.008,0-0.008,0-0.016,0
		c-0.08,0.016-0.16,0.024-0.232,0.04h-0.008c-0.08,0.016-0.16,0.024-0.24,0.04l0,0c-2.928,0.48-5.84,1.024-8.72,1.624l0,0
		c-0.08,0.016-0.16,0.032-0.24,0.048l0,0c-0.08,0.016-0.16,0.032-0.24,0.048c-0.008,0,0,0-0.008,0
		c-0.08,0.016-0.16,0.032-0.232,0.048c-0.008,0,0,0-0.008,0c-0.04,0.008-0.08,0.016-0.12,0.024l0,0
		c-0.04,0.008-0.072,0.016-0.112,0.024c-0.008,0-0.008,0-0.016,0c-0.072,0.016-0.152,0.032-0.224,0.048
		c-0.008,0-0.016,0-0.024,0.008c-0.04,0.008-0.072,0.016-0.112,0.024h-0.008c-0.032,0.008-0.072,0.016-0.104,0.024
		c-0.016,0-0.016,0-0.024,0.008c-0.032,0.008-0.064,0.016-0.096,0.024h-0.016c-0.032,0.008-0.064,0.016-0.096,0.024
		c-0.016,0-0.016,0-0.032,0.008c-0.032,0.008-0.064,0.016-0.096,0.016c-0.008,0-0.016,0-0.024,0.008
		c-0.032,0.008-0.064,0.016-0.104,0.024c-0.016,0-0.016,0.008-0.032,0.008c-0.032,0.008-0.056,0.016-0.088,0.016
		c-0.008,0-0.016,0-0.024,0.008c-0.032,0.008-0.064,0.016-0.104,0.024c-0.016,0-0.024,0.008-0.04,0.008
		c-0.024,0.008-0.048,0.008-0.072,0.016c-0.016,0-0.024,0.008-0.032,0.008c-0.032,0.008-0.064,0.016-0.096,0.024
		c-0.016,0-0.032,0.008-0.04,0.008c-0.024,0.008-0.04,0.008-0.064,0.016c-0.016,0-0.032,0.008-0.04,0.008
		c-0.032,0.008-0.064,0.016-0.088,0.024s-0.024,0.008-0.048,0.008c-0.024,0.008-0.04,0.008-0.064,0.016
		c-0.016,0-0.032,0.008-0.048,0.008c-0.032,0.008-0.064,0.016-0.088,0.024s-0.032,0.008-0.048,0.008s-0.04,0.008-0.056,0.008
		c-0.024,0.008-0.032,0.008-0.048,0.008c-0.032,0.008-0.056,0.016-0.088,0.016c-0.024,0.008-0.032,0.008-0.056,0.008
		c-0.016,0-0.032,0.008-0.048,0.008c-0.024,0.008-0.032,0.008-0.056,0.016c-0.032,0.008-0.056,0.016-0.088,0.016
		c-0.024,0.008-0.032,0.008-0.056,0.016c-0.016,0-0.032,0.008-0.04,0.008c-0.016,0-0.024,0.008-0.04,0.008l1.752,7.808
		c4.984-1.12,10.08-2.072,15.144-2.816L224.112,42.336L224.112,42.336z M192.92,49.352L192.92,49.352
		c-0.08,0.024-0.16,0.048-0.24,0.072l0,0c-0.08,0.024-0.16,0.048-0.24,0.072l0,0c-0.08,0.024-0.16,0.048-0.24,0.072h-0.008
		c-0.08,0.024-0.16,0.048-0.232,0.072h-0.008c-0.08,0.024-0.16,0.048-0.24,0.072l0,0c-0.08,0.024-0.16,0.048-0.232,0.072
		c-0.008,0,0,0-0.008,0c-0.08,0.024-0.152,0.048-0.232,0.072c-0.008,0,0,0-0.008,0c-0.08,0.024-0.152,0.048-0.232,0.072
		c-0.008,0-0.008,0-0.016,0.008c-0.04,0.008-0.072,0.024-0.112,0.032l0,0c-0.04,0.008-0.072,0.024-0.112,0.032
		c-0.008,0-0.008,0-0.008,0c-0.04,0.008-0.072,0.024-0.112,0.04l0,0c-0.04,0.008-0.072,0.024-0.112,0.032c-0.008,0,0,0-0.008,0
		c-0.04,0.016-0.08,0.024-0.112,0.04l0,0c-0.04,0.008-0.072,0.024-0.112,0.032h-0.008c-0.04,0.016-0.08,0.024-0.112,0.04h-0.008
		c-0.04,0.008-0.072,0.024-0.112,0.032h-0.008c-0.04,0.016-0.072,0.024-0.112,0.04h-0.008c-0.04,0.008-0.072,0.024-0.112,0.032
		h-0.008c-0.04,0.016-0.072,0.024-0.112,0.04h-0.008c-0.032,0.008-0.072,0.024-0.104,0.032h-0.008
		c-0.04,0.016-0.072,0.024-0.112,0.04c-0.008,0-0.008,0-0.016,0c-0.032,0.008-0.072,0.024-0.104,0.032h-0.008
		c-0.04,0.016-0.072,0.024-0.112,0.04c0,0,0,0-0.008,0c-0.032,0.008-0.072,0.024-0.104,0.032h-0.008
		c-0.04,0.008-0.072,0.024-0.112,0.04c-0.008,0-0.008,0-0.016,0.008c-0.04,0.008-0.072,0.024-0.104,0.032h-0.008
		c-0.04,0.016-0.072,0.024-0.112,0.04c-0.008,0-0.008,0-0.016,0.008c-0.04,0.016-0.072,0.024-0.112,0.04l0,0
		c-0.04,0.016-0.072,0.024-0.112,0.04c-0.008,0-0.008,0-0.016,0.008c-0.04,0.016-0.072,0.024-0.112,0.04l0,0
		c-0.04,0.016-0.072,0.024-0.112,0.04c0,0-0.008,0-0.008,0.008c-0.072,0.024-0.152,0.048-0.224,0.072c-0.008,0,0,0-0.008,0
		c-0.072,0.024-0.152,0.048-0.224,0.072c-0.008,0-0.008,0-0.008,0c-0.08,0.024-0.16,0.056-0.232,0.08h-0.008
		c-0.072,0.024-0.152,0.048-0.224,0.072h-0.008c-0.072,0.024-0.152,0.048-0.224,0.072h-0.008c-0.072,0.024-0.152,0.048-0.224,0.08
		h-0.008c-0.08,0.024-0.152,0.048-0.232,0.08h-0.008c-0.08,0.024-0.152,0.048-0.232,0.08c-0.008,0,0,0-0.008,0
		c-0.08,0.024-0.152,0.056-0.232,0.08c0,0,0,0-0.008,0c-0.08,0.024-0.152,0.056-0.232,0.08c-0.008,0,0,0-0.008,0
		c-0.08,0.024-0.152,0.056-0.232,0.08l0,0c-0.08,0.024-0.16,0.056-0.232,0.08l0,0c-2.56,0.888-5.096,1.816-7.616,2.792l2.896,7.456
		c4.768-1.856,9.664-3.544,14.552-5.04L192.92,49.352L192.92,49.352z M163.12,60.936c-1.696,0.808-3.384,1.64-5.056,2.488l0,0
		c-0.072,0.04-0.144,0.072-0.216,0.112h-0.008c-0.072,0.04-0.144,0.072-0.216,0.112c-0.008,0,0,0-0.008,0
		c-0.072,0.04-0.144,0.072-0.216,0.112c-0.008,0,0,0,0,0c-0.04,0.024-0.08,0.04-0.112,0.056h-0.008
		c-0.032,0.016-0.064,0.032-0.096,0.048l-0.016,0.008c-0.032,0.016-0.072,0.032-0.104,0.056l-0.016,0.008
		c-0.032,0.016-0.064,0.032-0.096,0.048V64c-0.032,0.016-0.064,0.032-0.096,0.048c-0.008,0-0.016,0.008-0.024,0.008
		c-0.032,0.016-0.056,0.032-0.088,0.048c-0.008,0-0.008,0.008-0.016,0.008c-0.032,0.016-0.064,0.032-0.096,0.048
		c-0.008,0-0.016,0.008-0.024,0.008c-0.032,0.016-0.064,0.032-0.096,0.048c-0.008,0,0,0-0.008,0
		c-0.032,0.016-0.064,0.032-0.096,0.048c-0.016,0.008-0.016,0.008-0.024,0.016c-0.024,0.016-0.056,0.032-0.08,0.04
		c-0.008,0-0.008,0.008-0.016,0.008c-0.032,0.016-0.064,0.032-0.096,0.048c-0.008,0.024-0.016,0.024-0.032,0.032
		c-0.032,0.016-0.056,0.032-0.088,0.048l-0.016,0.008c-0.024,0.016-0.056,0.032-0.08,0.04c-0.016,0.008-0.016,0.008-0.032,0.016
		c-0.032,0.016-0.064,0.032-0.088,0.048c-0.008,0-0.016,0.008-0.024,0.008c-0.024,0.016-0.048,0.024-0.08,0.04
		c-0.016,0.008-0.016,0.008-0.032,0.016c-0.032,0.016-0.064,0.032-0.088,0.048c-0.008,0-0.016,0.008-0.024,0.008
		c-0.024,0.016-0.048,0.024-0.08,0.04c-0.008,0-0.024,0.016-0.032,0.016c-0.024,0.024-0.056,0.04-0.088,0.056
		c-0.008,0.008-0.008,0.008-0.024,0.016c-0.024,0.016-0.048,0.024-0.08,0.04c-0.008,0-0.024,0.008-0.024,0.016
		c-0.032,0.016-0.064,0.032-0.088,0.048c-0.008,0-0.024,0.008-0.024,0.008c-0.032,0.016-0.056,0.032-0.08,0.04
		c-0.016,0.008-0.016,0.008-0.032,0.016c-0.032,0.016-0.056,0.032-0.088,0.048c-0.008,0-0.024,0.016-0.032,0.016
		c-0.024,0.016-0.048,0.024-0.072,0.04c-0.016,0.008-0.016,0.008-0.024,0.016c-0.032,0.016-0.064,0.032-0.096,0.048
		c-0.008,0-0.024,0.008-0.024,0.016c-0.024,0.016-0.056,0.032-0.08,0.04c-0.008,0-0.016,0.008-0.024,0.008
		c-0.032,0.016-0.064,0.032-0.088,0.048c-0.016,0.008-0.016,0.008-0.032,0.016c-0.032,0.016-0.056,0.032-0.088,0.048
		c-0.008,0-0.008,0-0.016,0.008c-0.032,0.016-0.064,0.032-0.096,0.048c-0.008,0.008-0.016,0.008-0.024,0.016
		c-0.032,0.016-0.064,0.032-0.096,0.048h-0.008c-0.032,0.016-0.064,0.032-0.088,0.048c0,0.016,0,0.016-0.016,0.024
		c-0.032,0.016-0.064,0.032-0.096,0.048c-0.008,0-0.008,0-0.008,0.008c-0.032,0.016-0.064,0.032-0.088,0.048
		c-0.008,0-0.016,0.008-0.016,0.008c-0.04,0.024-0.072,0.04-0.104,0.056c-0.008,0-0.008,0-0.008,0.008
		c-0.032,0.016-0.064,0.032-0.096,0.048c-0.008,0-0.008,0-0.016,0.008c-0.032,0.016-0.072,0.04-0.104,0.056h-0.008
		c-0.032,0.016-0.064,0.032-0.096,0.056l-0.008,0.008c-0.032,0.016-0.072,0.04-0.104,0.056l-0.008,0.008
		c-0.032,0.016-0.072,0.04-0.104,0.056l0,0c-0.04,0.016-0.072,0.04-0.112,0.056l0,0c-0.072,0.04-0.144,0.08-0.216,0.12
		c-0.008,0,0,0,0,0c-0.08,0.04-0.152,0.08-0.224,0.12l0,0c-1.24,0.68-2.472,1.368-3.704,2.072l3.968,6.944
		c4.44-2.536,9.032-4.944,13.648-7.144L163.12,60.936L163.12,60.936z M135.368,76.8c-3.808,2.568-7.52,5.248-11.152,8.048l0,0
		c-0.064,0.048-0.128,0.096-0.192,0.152l-0.008,0.008c-0.064,0.048-0.128,0.096-0.184,0.144c-0.008,0.008-0.008,0-0.008,0.008
		c-0.032,0.024-0.064,0.048-0.096,0.072l0,0c-0.032,0.024-0.056,0.048-0.088,0.072c-0.008,0.008-0.008,0.008-0.016,0.008
		c-0.032,0.024-0.056,0.048-0.088,0.072c-0.008,0.008-0.008,0.008-0.016,0.008c-0.024,0.016-0.048,0.04-0.072,0.056
		c-0.008,0.008-0.016,0.008-0.016,0.016c-0.024,0.024-0.056,0.04-0.08,0.064c-0.008,0.008-0.016,0.016-0.024,0.016
		c-0.024,0.016-0.04,0.032-0.064,0.048c-0.008,0.008-0.016,0.008-0.024,0.024c-0.024,0.024-0.056,0.04-0.08,0.064
		c-0.008,0.008-0.024,0.016-0.032,0.024c-0.016,0.016-0.04,0.032-0.056,0.048s-0.024,0.024-0.04,0.032
		c-0.016,0.016-0.04,0.032-0.056,0.048c-0.008,0.008-0.032,0.024-0.04,0.032c-0.016,0.008-0.032,0.024-0.048,0.04
		c-0.024,0.016-0.048,0.032-0.064,0.056c-0.016,0.008-0.024,0.024-0.04,0.032c-0.016,0.016-0.032,0.024-0.048,0.04
		c-0.016,0.008-0.024,0.016-0.04,0.032c-0.024,0.024-0.056,0.04-0.08,0.064c-0.008,0.008-0.016,0.016-0.024,0.024
		c-0.016,0.016-0.04,0.032-0.056,0.04l0,0c-0.024,0.024-0.048,0.04-0.072,0.056l4.952,6.288c4.016-3.168,8.208-6.224,12.448-9.08
		L135.368,76.8L135.368,76.8z M110.248,96.584c-3.936,3.6-7.736,7.344-11.4,11.224l5.816,5.488c3.512-3.72,7.2-7.36,10.976-10.808
		L110.248,96.584L110.248,96.584z M88.312,119.84c-3.36,4.136-6.576,8.4-9.624,12.776l6.56,4.576
		c2.92-4.192,6.04-8.336,9.272-12.304L88.312,119.84L88.312,119.84z M70.024,146.072c-0.752,1.264-1.488,2.544-2.216,3.832v0.008
		c-0.04,0.072-0.08,0.136-0.12,0.208c0,0.008-0.008,0.008-0.008,0.008c-0.04,0.072-0.072,0.136-0.112,0.208
		c0,0.008-0.008,0.008-0.008,0.016c-0.024,0.04-0.04,0.08-0.064,0.12c0,0.008-0.008,0.016-0.008,0.016
		c-0.016,0.024-0.016,0.032-0.032,0.056c-0.008,0-0.016,0.008-0.016,0.016c-0.024,0.032-0.032,0.056-0.056,0.096
		c-0.008,0.008-0.016,0.024-0.024,0.032s-0.024,0.04-0.032,0.048c-0.008,0.016-0.016,0.032-0.024,0.048
		c-0.016,0.024-0.032,0.056-0.048,0.08c-0.008,0.016-0.016,0.032-0.024,0.04c-0.008,0.016-0.016,0.032-0.024,0.048
		s-0.016,0.032-0.032,0.056c-0.008,0.016-0.032,0.048-0.04,0.072c-0.008,0.016-0.016,0.032-0.024,0.048s-0.016,0.032-0.024,0.048
		s-0.024,0.04-0.032,0.056c-0.008,0.016-0.024,0.04-0.032,0.064c-0.008,0.016-0.016,0.032-0.024,0.048s-0.016,0.024-0.024,0.04
		c-0.016,0.024-0.032,0.056-0.048,0.08c-0.008,0.008-0.016,0.024-0.024,0.04c-0.008,0.024-0.024,0.04-0.032,0.064
		c-0.008,0.008-0.008,0.024-0.016,0.032c-0.016,0.032-0.032,0.056-0.048,0.088c-0.008,0.008-0.008,0.024-0.016,0.032
		c-0.016,0.024-0.024,0.048-0.04,0.072c-0.008,0.008-0.008,0.016-0.016,0.024c-0.016,0.032-0.032,0.064-0.048,0.088
		c0,0.008-0.008,0.024-0.016,0.024c-0.016,0.024-0.032,0.056-0.048,0.08c0,0.008-0.008,0.008-0.008,0.008
		c-0.024,0.04-0.04,0.072-0.056,0.096c0,0.008-0.008,0.024-0.016,0.024c-0.016,0.032-0.032,0.064-0.048,0.088v0.008
		c-0.016,0.032-0.032,0.064-0.056,0.096c-0.008,0.008-0.008,0.008-0.008,0.024c-0.04,0.064-0.072,0.136-0.112,0.2
		c0,0.008-0.008,0.016-0.008,0.016c-0.024,0.04-0.04,0.072-0.056,0.104l0,0c-0.016,0.032-0.04,0.064-0.056,0.096
		c0,0-0.008,0.008-0.008,0.016c-0.016,0.032-0.04,0.072-0.056,0.104l0,0c-0.016,0.032-0.04,0.072-0.056,0.104
		c0,0.008,0,0-0.008,0.008c-0.016,0.032-0.04,0.072-0.056,0.104l0,0c-0.016,0.032-0.04,0.072-0.056,0.104v0.008
		c-0.016,0.032-0.04,0.072-0.056,0.104l0,0c-0.016,0.04-0.04,0.072-0.056,0.112l0,0c-0.016,0.04-0.04,0.072-0.056,0.112l0,0
		c-0.04,0.072-0.08,0.144-0.12,0.216l0,0c-0.712,1.32-1.408,2.648-2.096,3.984l0,0c-0.04,0.072-0.072,0.144-0.112,0.216v0.008
		c-0.04,0.072-0.072,0.144-0.112,0.216c0,0.008,0,0-0.008,0.008c-0.016,0.032-0.032,0.072-0.056,0.104l-0.008,0.008
		c-0.016,0.032-0.032,0.064-0.048,0.096c0,0.008-0.008,0.008-0.008,0.016c-0.016,0.032-0.032,0.064-0.048,0.104
		c0,0.008-0.008,0.008-0.008,0.016c-0.016,0.032-0.032,0.056-0.048,0.088c0,0.008-0.008,0.008-0.008,0.016
		c-0.016,0.032-0.032,0.064-0.048,0.096c0,0.008-0.008,0.016-0.008,0.016c-0.016,0.032-0.032,0.056-0.04,0.088
		c-0.008,0.016-0.008,0.008-0.008,0.024c-0.016,0.032-0.032,0.064-0.048,0.088c-0.008,0.016-0.008,0.024-0.016,0.032
		c-0.008,0.024-0.024,0.048-0.032,0.072c-0.008,0.016-0.008,0.016-0.016,0.032c-0.016,0.032-0.032,0.056-0.04,0.088
		c-0.008,0.016-0.016,0.032-0.024,0.04c-0.008,0.016-0.016,0.04-0.032,0.056c-0.008,0.016-0.024,0.04-0.032,0.056
		c-0.008,0.024-0.016,0.04-0.032,0.056c-0.008,0.016-0.016,0.04-0.024,0.048c-0.008,0.016-0.016,0.032-0.024,0.048
		c-0.016,0.032-0.024,0.056-0.04,0.088c-0.008,0.008-0.008,0.024-0.016,0.032c-0.016,0.024-0.016,0.032-0.032,0.056
		c-0.008,0.008-0.008,0.016-0.016,0.032c-0.016,0.04-0.032,0.072-0.056,0.104c0,0.008-0.008,0.016-0.016,0.024
		c-0.04,0.072-0.064,0.128-0.104,0.208c0,0.008,0,0.008-0.008,0.008c0,0.064,0,0.072-0.008,0.096l7.168,3.552
		c2.272-4.576,4.744-9.136,7.352-13.536L70.024,146.072L70.024,146.072z M55.816,174.712c-0.208,0.512-0.416,1.032-0.624,1.552l0,0
		c-0.032,0.08-0.056,0.152-0.088,0.224l0,0c-0.032,0.08-0.056,0.152-0.088,0.224v0.008c-0.032,0.08-0.056,0.144-0.088,0.224
		c0,0,0,0.008-0.008,0.008c-0.024,0.048-0.04,0.096-0.056,0.144v0.008c-0.008,0.024-0.016,0.048-0.032,0.072v0.008
		c-0.024,0.056-0.04,0.096-0.056,0.152l0,0c-0.008,0.024-0.016,0.048-0.032,0.072c0,0,0,0.008-0.008,0.008
		c-0.024,0.048-0.032,0.088-0.056,0.144v0.008c-0.008,0.024-0.016,0.048-0.032,0.072v0.008c-0.016,0.048-0.032,0.088-0.056,0.136
		c0,0.008,0,0.008-0.008,0.016c-0.008,0.024-0.016,0.048-0.024,0.072v0.008c-0.016,0.048-0.032,0.088-0.056,0.136
		c0,0.008-0.008,0.008-0.008,0.016c-0.008,0.024-0.016,0.048-0.024,0.072l0,0c-0.016,0.048-0.032,0.088-0.056,0.144
		c0,0,0,0.008-0.008,0.016c-0.032,0.08-0.056,0.144-0.088,0.216c0,0,0,0.008-0.008,0.008c-0.032,0.08-0.056,0.144-0.08,0.216
		c0,0,0,0.008-0.008,0.016c-0.024,0.072-0.056,0.144-0.08,0.216c0,0.008-0.008,0.008-0.008,0.008
		c-0.032,0.08-0.056,0.144-0.088,0.224c0,0.008-0.008,0.008-0.008,0.008c-0.032,0.08-0.056,0.144-0.08,0.224
		c0,0.008-0.008,0.008-0.008,0.008c-0.032,0.08-0.056,0.144-0.088,0.224v0.008c-0.032,0.08-0.056,0.144-0.08,0.216
		c0,0.008,0,0.008-0.008,0.016c-0.032,0.08-0.056,0.144-0.08,0.216l-0.008,0.008c-0.032,0.08-0.056,0.144-0.08,0.224v0.008
		c-0.032,0.08-0.056,0.144-0.08,0.224v0.008c-0.032,0.08-0.056,0.144-0.08,0.224v0.008c-0.032,0.08-0.056,0.152-0.08,0.224
		c0,0,0,0,0,0.008c-0.032,0.08-0.056,0.152-0.08,0.224v0.008c-0.016,0.048-0.032,0.096-0.056,0.152l0,0
		c-0.008,0.024-0.016,0.048-0.024,0.072v0.008c-0.032,0.08-0.056,0.144-0.08,0.224v0.008c-0.024,0.056-0.04,0.096-0.056,0.152l0,0
		c-0.056,0.152-0.112,0.312-0.168,0.464l0,0c-0.056,0.152-0.112,0.304-0.168,0.464v0.008c-0.024,0.08-0.056,0.152-0.08,0.232l0,0
		c-0.024,0.08-0.056,0.152-0.08,0.224v0.008c-0.024,0.08-0.056,0.144-0.08,0.224v0.008c-0.024,0.08-0.048,0.144-0.08,0.224
		c0,0.008,0,0.008-0.008,0.016c-0.024,0.08-0.048,0.144-0.08,0.224c0,0.008,0,0.008-0.008,0.016
		c-0.024,0.072-0.048,0.144-0.08,0.216c0,0.008-0.008,0.016-0.008,0.024c-0.024,0.064-0.048,0.144-0.072,0.216
		c0,0.008-0.008,0.016-0.008,0.024c-0.024,0.064-0.048,0.144-0.072,0.216c0,0.008-0.008,0.016-0.008,0.024
		c-0.016,0.048-0.032,0.088-0.048,0.136v0.008c-0.008,0.016-0.016,0.048-0.024,0.064c0,0.008-0.008,0.016-0.008,0.024
		c-0.024,0.064-0.048,0.144-0.072,0.208c0,0.008-0.008,0.016-0.008,0.032c-0.016,0.04-0.024,0.072-0.04,0.112
		c0,0.008-0.008,0.016-0.008,0.032c-0.008,0.016-0.016,0.04-0.024,0.064c0,0.008-0.008,0.024-0.008,0.032
		c-0.016,0.04-0.024,0.064-0.04,0.104c0,0.008-0.008,0.024-0.008,0.032c-0.008,0.016-0.016,0.04-0.024,0.064
		c-0.008,0.016-0.008,0.024-0.016,0.04c-0.008,0.032-0.024,0.064-0.032,0.096c-0.008,0.016-0.008,0.024-0.016,0.04
		c-0.008,0.016-0.016,0.04-0.024,0.056s-0.008,0.024-0.016,0.04c-0.008,0.032-0.024,0.064-0.032,0.096
		c-0.008,0.016-0.008,0.032-0.016,0.04c-0.008,0.016-0.016,0.04-0.016,0.056c-0.008,0.016-0.008,0.032-0.016,0.056
		s-0.016,0.048-0.024,0.08c-0.008,0.016-0.016,0.04-0.016,0.056c-0.008,0.016-0.016,0.04-0.016,0.048
		c-0.008,0.016-0.016,0.04-0.016,0.056c-0.008,0.024-0.016,0.04-0.024,0.064s-0.016,0.04-0.024,0.064
		c-0.008,0.016-0.008,0.032-0.016,0.048c-0.008,0.024-0.016,0.048-0.024,0.072c-0.008,0.016-0.008,0.032-0.016,0.048
		c-0.008,0.024-0.016,0.048-0.024,0.08c-0.008,0.016-0.008,0.024-0.016,0.04c-0.008,0.032-0.024,0.064-0.032,0.096
		c0,0-0.008,0.016-0.008,0.024c-0.008,0.024-0.016,0.056-0.024,0.08c-0.008,0.016-0.008,0.016-0.008,0.032
		c-0.008,0.032-0.024,0.064-0.032,0.104l-0.008,0.016c-0.008,0.032-0.016,0.056-0.032,0.088c0,0.008-0.008,0.024-0.008,0.024
		c-0.008,0.032-0.024,0.072-0.032,0.104c0,0,0,0,0,0.008c-0.008,0.032-0.024,0.064-0.032,0.096c0,0.008-0.008,0.016-0.008,0.016
		c-0.016,0.04-0.024,0.072-0.04,0.112c0,0.008,0,0,0,0.008c-0.008,0.032-0.024,0.072-0.032,0.104c0,0.008,0,0.008-0.008,0.016
		c-0.016,0.04-0.024,0.072-0.04,0.112l0,0c-0.208,0.632-0.416,1.272-0.624,1.904l7.616,2.448c1.568-4.864,3.336-9.736,5.264-14.472
		L55.816,174.712L55.816,174.712z M46.024,205.144c-0.016,0.08-0.04,0.16-0.056,0.24l0,0c-0.016,0.08-0.04,0.16-0.056,0.232
		c0,0.008,0,0.008,0,0.016c-0.016,0.072-0.032,0.152-0.056,0.224c0,0.008,0,0.016-0.008,0.024c-0.008,0.032-0.016,0.064-0.024,0.096
		c0,0.008,0,0.008,0,0.016c-0.008,0.032-0.016,0.072-0.024,0.104c0,0.016-0.008,0.024-0.008,0.032
		c-0.008,0.024-0.016,0.048-0.016,0.08c0,0.016-0.008,0.016-0.008,0.032c-0.008,0.032-0.016,0.064-0.024,0.096
		c0,0.016-0.008,0.032-0.008,0.04c-0.008,0.024-0.008,0.04-0.016,0.064c0,0.016-0.008,0.024-0.008,0.04
		c-0.008,0.032-0.016,0.064-0.024,0.088s-0.008,0.032-0.008,0.048c-0.008,0.016-0.008,0.032-0.016,0.048
		c-0.008,0.024-0.008,0.04-0.016,0.072c-0.008,0.024-0.008,0.048-0.016,0.064c-0.008,0.024-0.008,0.04-0.016,0.064
		c0,0.016-0.008,0.024-0.008,0.04c-0.016,0.064-0.032,0.144-0.048,0.208c0,0.008-0.008,0.016-0.008,0.024
		c-0.016,0.072-0.032,0.144-0.048,0.224c0,0,0,0.008,0,0.016c-0.672,2.912-1.28,5.832-1.832,8.792v0.008
		c-0.016,0.08-0.032,0.152-0.04,0.232c0,0.008,0,0.016-0.008,0.024c-0.016,0.072-0.032,0.152-0.04,0.224
		c0,0.008,0,0.016-0.008,0.024c0,0.024-0.008,0.048-0.016,0.072c0,0,0,0.016,0,0.024c-0.008,0.04-0.016,0.08-0.024,0.12
		c0,0.016-0.008,0.024-0.008,0.04c0,0.024-0.008,0.04-0.008,0.056c0,0.024-0.008,0.04-0.008,0.064s-0.008,0.048-0.016,0.072
		c0,0.024-0.008,0.04-0.008,0.064c0,0.016-0.008,0.032-0.008,0.048c-0.008,0.032-0.008,0.056-0.016,0.08
		c0,0.024-0.008,0.024-0.008,0.048c-0.008,0.024-0.008,0.056-0.016,0.08c0,0.016-0.008,0.024-0.008,0.032
		c-0.008,0.032-0.016,0.072-0.016,0.104c0,0.008,0,0.008,0,0.008c-0.008,0.032-0.016,0.064-0.016,0.104c0,0.016,0,0.008-0.008,0.024
		c-0.016,0.072-0.024,0.152-0.04,0.232v0.016c-0.016,0.08-0.032,0.16-0.04,0.24v0.008c-0.152,0.864-0.296,1.728-0.44,2.6
		l7.896,1.296c0.824-5.048,1.856-10.128,3.056-15.096L46.024,205.144L46.024,205.144z M40.848,236.688
		c-0.464,5.272-0.744,10.6-0.824,15.976l8,0.12c0.08-5.128,0.344-10.304,0.792-15.392L40.848,236.688L40.848,236.688z M48.352,268.2
		l-7.984,0.464c0,0.008,0,0.008,0,0.016c0,0.032,0,0.064,0.008,0.096c0,0.016,0,0.024,0,0.04c0,0.024,0,0.056,0.008,0.08
		c0,0.016,0,0.016,0,0.032c0,0.032,0.008,0.072,0.008,0.104c0,0.008,0,0.032,0,0.04c0,0.024,0,0.048,0.008,0.08
		c0,0.016,0,0.024,0,0.032c0,0.032,0.008,0.072,0.008,0.104c0,0.016,0,0.024,0,0.04c0,0.024,0,0.048,0.008,0.072
		c0,0.016,0,0.024,0,0.04c0,0.032,0.008,0.072,0.008,0.104c0,0.016,0,0.024,0,0.032c0,0.024,0,0.048,0.008,0.072
		c0,0.016,0,0.032,0,0.04c0,0.032,0.008,0.064,0.008,0.104c0,0.016,0,0.016,0,0.032c0,0.024,0,0.048,0.008,0.08
		c0,0.016,0,0.032,0,0.04c0,0.032,0,0.064,0.008,0.088c0,0.016,0,0.024,0,0.04c0,0.024,0,0.056,0.008,0.08c0,0.016,0,0.032,0,0.048
		c0,0.024,0,0.048,0.008,0.072c0,0.024,0,0.032,0,0.056s0,0.056,0.008,0.08c0,0.016,0,0.032,0,0.048c0,0.024,0,0.04,0.008,0.064
		c0,0.016,0,0.032,0,0.048c0,0.032,0.008,0.064,0.008,0.096c0,0.024,0,0.032,0,0.048s0,0.04,0.008,0.064c0,0.016,0,0.032,0,0.048
		c0,0.032,0.008,0.064,0.008,0.096c0,0.016,0,0.032,0,0.048c0,0.024,0,0.04,0.008,0.064c0,0.024,0,0.024,0,0.048
		c0,0.032,0.008,0.064,0.008,0.096c0,0.016,0,0.032,0,0.048c0,0.024,0,0.04,0.008,0.064c0,0.016,0,0.032,0,0.048
		c0,0.024,0,0.048,0.008,0.072c0,0.024,0,0.048,0.008,0.072c0,0.024,0,0.04,0.008,0.064c0,0.016,0,0.04,0,0.048
		c0,0.024,0,0.04,0.008,0.064c0,0.032,0,0.04,0.008,0.072c0,0.024,0,0.04,0.008,0.064c0,0.016,0,0.032,0,0.048
		c0,0.024,0,0.048,0.008,0.064c0,0.024,0,0.032,0.008,0.056c0,0.024,0.008,0.056,0.008,0.08c0,0.016,0,0.04,0,0.048
		c0,0.016,0,0.04,0.008,0.056c0,0.016,0,0.032,0,0.048c0,0.032,0.008,0.064,0.008,0.096c0,0.024,0,0.024,0,0.048
		c0,0.024,0,0.04,0.008,0.064c0,0.016,0,0.032,0,0.048c0,0.032,0.008,0.064,0.008,0.096c0,0.016,0,0.032,0,0.048
		c0,0.024,0,0.04,0.008,0.064c0,0.024,0,0.024,0,0.048c0,0.032,0.008,0.064,0.008,0.088c0,0.016,0,0.04,0.008,0.056
		c0,0.016,0,0.04,0.008,0.056c0,0.016,0,0.04,0.008,0.056c0,0.024,0,0.048,0.008,0.064c0,0.024,0.008,0.056,0.008,0.072
		c0,0.024,0,0.04,0.008,0.064c0,0.016,0,0.04,0.008,0.056c0,0.024,0,0.04,0.008,0.064c0,0.024,0,0.04,0.008,0.064
		c0,0.024,0,0.048,0.008,0.072c0,0.016,0,0.032,0.008,0.048c0,0.024,0,0.04,0.008,0.064c0,0.024,0,0.04,0.008,0.056
		c0,0.024,0.008,0.056,0.008,0.08s0,0.032,0.008,0.048c0,0.016,0,0.04,0.008,0.056c0,0.016,0,0.032,0,0.048
		c0,0.032,0.008,0.064,0.008,0.096c0,0.024,0,0.024,0,0.048c0,0.024,0,0.04,0.008,0.064c0,0.024,0,0.024,0,0.048
		c0,0.032,0.008,0.064,0.008,0.096c0,0.016,0,0.032,0.008,0.048c0,0.024,0,0.04,0.008,0.064c0,0.016,0,0.032,0.008,0.048
		c0,0.032,0.008,0.056,0.008,0.088c0,0.016,0,0.032,0.008,0.048c0,0.024,0,0.048,0.008,0.064c0,0.016,0,0.032,0.008,0.048
		c0,0.024,0.008,0.048,0.008,0.072s0,0.04,0.008,0.064c0,0.024,0,0.048,0.008,0.072c0,0.016,0,0.032,0.008,0.048
		c0,0.024,0,0.04,0.008,0.064c0,0.024,0,0.04,0.008,0.064c0,0.024,0.008,0.048,0.008,0.08c0,0.016,0,0.032,0,0.048
		c0,0.024,0.008,0.048,0.008,0.072c0,0.016,0,0.024,0,0.04c0,0.032,0.008,0.064,0.008,0.096c0,0.008,0,0.032,0,0.032
		c0,0.032,0.008,0.056,0.008,0.08c0,0.016,0,0.024,0,0.04c0,0.032,0.008,0.064,0.008,0.096c0,0.016,0,0.024,0,0.04
		c0,0.024,0.008,0.048,0.008,0.064c0,0.024,0,0.024,0.008,0.048c0,0.032,0.008,0.064,0.008,0.096c0,0.016,0,0.024,0,0.04
		c0,0.024,0.008,0.048,0.008,0.064s0,0.032,0.008,0.048c0,0.032,0.008,0.064,0.008,0.096c0,0.016,0,0.016,0,0.032
		c0,0.024,0.008,0.048,0.008,0.08c0,0.016,0,0.032,0.008,0.04c0,0.024,0.008,0.056,0.008,0.08c0,0.016,0,0.032,0.008,0.04
		c0,0.024,0.008,0.056,0.008,0.08c0,0.016,0,0.024,0,0.04c0,0.024,0.008,0.056,0.008,0.08c0,0.008,0,0.024,0,0.032
		c0,0.032,0.008,0.064,0.008,0.104c0,0.016,0,0.024,0,0.04c0,0.024,0.008,0.056,0.008,0.08c0,0.016,0,0.016,0,0.032
		c0,0.032,0.008,0.072,0.008,0.104c0,0.008,0,0.032,0,0.032c0,0.024,0.008,0.056,0.008,0.08c0,0.016,0,0.016,0,0.032
		c0,0.032,0.008,0.072,0.008,0.104c0,0.016,0,0.024,0,0.032c0,0.024,0.008,0.048,0.008,0.08c0,0.008,0,0.032,0,0.04
		c0,0.032,0.008,0.072,0.008,0.104c0,0.008,0,0.016,0,0.024c0,0.032,0.008,0.056,0.008,0.088c0,0.016,0,0.016,0,0.032
		c0,0.032,0.008,0.072,0.008,0.104c0,0.008,0,0.016,0,0.024c0,0.032,0.008,0.064,0.008,0.088c0,0.016,0,0.016,0,0.032
		c0,0.032,0.008,0.072,0.008,0.104v0.008c0,0.04,0.008,0.072,0.008,0.112c0,0.008,0,0.016,0,0.024c0,0.032,0.008,0.064,0.008,0.096
		c0,0.008,0,0.008,0,0.016c0,0.032,0.008,0.072,0.008,0.104c0,0.008,0,0.024,0,0.032c0,0.032,0.008,0.056,0.008,0.088
		c0,0.016,0,0.008,0,0.024c0,0.032,0.008,0.072,0.008,0.112c0,0.008,0,0.024,0,0.024c0,0.032,0.008,0.056,0.008,0.088
		c0,0.008,0,0.024,0,0.032c0,0.04,0.008,0.072,0.008,0.112c0,0.008,0,0.016,0,0.024c0,0.032,0.008,0.064,0.008,0.096
		c0,0.008,0,0.024,0,0.024c0.008,0.04,0.008,0.08,0.016,0.12c0,0.008,0,0.008,0,0.016c0,0.032,0.008,0.064,0.008,0.096
		c0,0.008,0,0.024,0,0.032c0.008,0.04,0.008,0.072,0.008,0.112l0,0c0,0.04,0.008,0.072,0.008,0.112c0,0.008,0,0.016,0,0.016
		c0.008,0.08,0.016,0.16,0.024,0.232c0,0.008,0,0.016,0,0.024c0,0.032,0.008,0.072,0.008,0.104c0,0.008,0,0,0,0.008
		c0.008,0.04,0.008,0.08,0.016,0.112c0,0.008,0,0.016,0,0.024c0,0.032,0.008,0.064,0.008,0.096v0.016
		c0.008,0.04,0.008,0.072,0.016,0.112c0,0.008,0,0.008,0,0.008c0.008,0.04,0.008,0.072,0.016,0.112c0,0.008,0,0.008,0,0.016
		c0.008,0.04,0.008,0.08,0.016,0.112c0,0,0,0.008,0,0.016c0,0.032,0.008,0.072,0.008,0.104c0,0.008,0,0.008,0,0.008
		c0.008,0.048,0.008,0.08,0.016,0.12l0,0c0.008,0.04,0.008,0.072,0.016,0.112c0,0.008,0,0.008,0,0.016
		c0.008,0.08,0.016,0.152,0.024,0.232c0,0.008,0,0.008,0,0.008c0.008,0.088,0.016,0.16,0.024,0.24c0,0,0,0.008,0,0.016
		c0.008,0.04,0.008,0.08,0.016,0.112l0,0c0.008,0.04,0.008,0.08,0.016,0.12v0.008c0.008,0.04,0.008,0.072,0.016,0.112v0.008
		c0.008,0.04,0.008,0.08,0.016,0.12l0,0c0.008,0.04,0.008,0.08,0.016,0.12c0,0.008,0,0,0,0.008c0.008,0.08,0.016,0.16,0.032,0.24
		c0,0.008,0,0,0,0.008c0.008,0.08,0.016,0.16,0.032,0.24v0.008c0.008,0.08,0.016,0.16,0.032,0.24v0.008
		c0.08,0.656,0.168,1.312,0.248,1.968l7.928-1.048C49.136,278.48,48.648,273.32,48.352,268.2L48.352,268.2z M52.392,298.728
		l-7.832,1.632c0.2,0.944,0.4,1.88,0.608,2.816v0.008c0.016,0.08,0.032,0.152,0.056,0.232c0,0.008,0,0.008,0,0.016
		c0.016,0.08,0.032,0.152,0.048,0.224c0,0,0,0.016,0.008,0.024c0.008,0.032,0.016,0.064,0.024,0.104c0,0.008,0,0.008,0,0.008
		c0.008,0.032,0.016,0.072,0.024,0.104c0,0.008,0.008,0.024,0.008,0.024c0.008,0.04,0.016,0.064,0.024,0.096
		c0,0,0,0.016,0.008,0.024c0.008,0.032,0.016,0.072,0.024,0.104c0,0.016,0.008,0.024,0.008,0.032
		c0.008,0.024,0.008,0.048,0.016,0.072c0,0.016,0.008,0.024,0.008,0.032c0.008,0.032,0.016,0.064,0.024,0.096
		c0,0.016,0.008,0.024,0.008,0.04c0.008,0.024,0.008,0.048,0.016,0.072c0,0.016,0.008,0.024,0.008,0.032
		c0.008,0.032,0.016,0.064,0.024,0.096c0,0.016,0.008,0.032,0.008,0.04c0.008,0.024,0.008,0.048,0.016,0.072
		c0,0.016,0.008,0.024,0.008,0.04c0.008,0.032,0.016,0.064,0.024,0.096c0,0.016,0.008,0.032,0.008,0.048
		c0.008,0.024,0.008,0.04,0.016,0.064s0.008,0.04,0.016,0.064c0,0.024,0,0.048,0.008,0.072c0.008,0.024,0.008,0.032,0.016,0.056
		c0,0.016,0.008,0.032,0.008,0.048c0.008,0.032,0.016,0.056,0.024,0.088c0.008,0.016,0.008,0.032,0.016,0.056
		s0.008,0.04,0.016,0.056c0,0.016,0.008,0.032,0.008,0.048c0.008,0.032,0.016,0.072,0.024,0.104c0,0.008,0.008,0.024,0.008,0.032
		c0.008,0.024,0.008,0.048,0.016,0.064c0,0.008,0.008,0.024,0.008,0.032c0.008,0.048,0.024,0.088,0.032,0.136v0.008
		c0.008,0.024,0.008,0.048,0.016,0.072c0,0.008,0.008,0.016,0.008,0.032c0.016,0.072,0.032,0.144,0.056,0.216
		c0,0,0,0.016,0.008,0.016c0.016,0.08,0.032,0.144,0.056,0.224c0,0.008,0,0.008,0,0.016c0.016,0.08,0.032,0.152,0.056,0.232v0.008
		c0.024,0.088,0.04,0.16,0.056,0.24c0,0,0,0,0,0.008c0.04,0.16,0.08,0.32,0.12,0.48c0,0,0,0,0,0.008
		c0.584,2.384,1.2,4.752,1.864,7.104l0,0c0.024,0.08,0.04,0.152,0.064,0.24v0.008c0.024,0.08,0.04,0.152,0.064,0.232v0.008
		c0.016,0.048,0.024,0.096,0.04,0.144c0,0.008,0,0.008,0.008,0.016c0.008,0.024,0.016,0.048,0.024,0.072
		c0,0.008,0,0.016,0.008,0.016c0.016,0.048,0.024,0.096,0.04,0.144l0,0c0.008,0.024,0.016,0.048,0.024,0.072
		c0,0.008,0,0.016,0.008,0.024c0.016,0.048,0.024,0.088,0.04,0.136v0.008c0.008,0.024,0.016,0.048,0.024,0.072
		c0,0,0,0.016,0.008,0.016c0.016,0.048,0.024,0.096,0.04,0.144l0,0c0,0.016,0.008,0.016,0.008,0.032l7.688-2.216
		C54.68,308.76,53.432,303.728,52.392,298.728L52.392,298.728z M60.904,328.304l-7.504,2.784c0.424,1.136,0.848,2.264,1.288,3.392
		l0,0c0.032,0.072,0.056,0.152,0.088,0.224c0,0.008,0,0,0,0.008c0.032,0.072,0.056,0.152,0.088,0.224c0,0.008,0,0,0,0
		c0.032,0.08,0.064,0.16,0.088,0.232v0.008c0.016,0.04,0.032,0.072,0.048,0.112v0.008c0.016,0.032,0.032,0.072,0.04,0.104v0.008
		c0.016,0.04,0.032,0.072,0.04,0.112v0.008c0.016,0.04,0.032,0.072,0.04,0.112v0.008c0.016,0.04,0.032,0.072,0.04,0.112l0.008,0.008
		c0.016,0.032,0.024,0.072,0.04,0.104v0.008c0.016,0.04,0.032,0.072,0.04,0.112c0,0.008,0,0.008,0.008,0.016
		c0.016,0.032,0.032,0.072,0.04,0.104l0,0c0.016,0.04,0.032,0.072,0.04,0.112c0,0.008,0,0.008,0.008,0.016
		c0.016,0.032,0.032,0.072,0.04,0.104l0,0c0.016,0.04,0.032,0.072,0.048,0.112c0,0.008,0,0.008,0.008,0.008
		c0.032,0.072,0.056,0.144,0.088,0.216c0,0.008,0.008,0.008,0.008,0.016c0.032,0.072,0.056,0.144,0.088,0.216
		c0,0.008,0.008,0.008,0.008,0.016c0.032,0.072,0.056,0.144,0.088,0.216l0.008,0.016c0.032,0.072,0.056,0.144,0.088,0.216v0.008
		c0.032,0.072,0.064,0.152,0.088,0.224v0.008c0.032,0.072,0.064,0.152,0.096,0.224c0,0.008,0,0,0,0.008
		c0.032,0.08,0.064,0.152,0.096,0.232l0,0c1.08,2.624,2.208,5.216,3.384,7.784l7.272-3.328
		C64.664,337.88,62.688,333.096,60.904,328.304L60.904,328.304z M73.728,356.28l-7.008,3.864c0.712,1.296,1.44,2.584,2.184,3.864
		l0,0c0.04,0.072,0.08,0.136,0.12,0.208c0,0,0,0.008,0.008,0.008c0.024,0.048,0.048,0.08,0.072,0.128c0,0,0,0.008,0.008,0.008
		c0.016,0.024,0.024,0.04,0.04,0.064c0,0.008,0.008,0.008,0.008,0.008c0.024,0.04,0.048,0.088,0.072,0.12
		c0.008,0.008,0.008,0.016,0.016,0.024c0.016,0.024,0.016,0.032,0.032,0.056c0.008,0.016,0.016,0.024,0.024,0.04
		c0.016,0.024,0.032,0.064,0.048,0.08c0.008,0.016,0.016,0.024,0.024,0.04c0.008,0.016,0.016,0.032,0.032,0.048
		c0.008,0.016,0.016,0.032,0.032,0.048c0.016,0.032,0.024,0.04,0.04,0.072c0.008,0.016,0.016,0.032,0.024,0.048
		s0.016,0.032,0.024,0.048c0.016,0.024,0.032,0.048,0.048,0.08c0.008,0.008,0.016,0.032,0.024,0.04
		c0.008,0.016,0.024,0.032,0.032,0.056c0.008,0.016,0.016,0.024,0.024,0.04c0.016,0.024,0.032,0.056,0.048,0.08
		c0.008,0.016,0.016,0.024,0.024,0.04c0.008,0.016,0.024,0.04,0.032,0.056c0.008,0.008,0.016,0.024,0.016,0.032
		c0.016,0.032,0.032,0.056,0.048,0.088c0,0.008,0.016,0.024,0.016,0.032c0.016,0.024,0.032,0.048,0.048,0.072
		c0,0.008,0.008,0.016,0.008,0.016c0.016,0.032,0.04,0.064,0.056,0.096c0,0.008,0.008,0.016,0.016,0.024
		c0.016,0.032,0.032,0.056,0.056,0.088c0,0.008,0,0,0,0.008c0.016,0.032,0.04,0.064,0.056,0.096
		c0.008,0.008,0.008,0.008,0.016,0.024c0.04,0.064,0.08,0.128,0.112,0.192c0,0.008,0.008,0.016,0.008,0.016
		c0.04,0.072,0.08,0.136,0.12,0.208c0,0.008,0,0.008,0.008,0.016c0.04,0.072,0.08,0.136,0.12,0.208c0,0.008,0,0,0.008,0.008
		c0.04,0.072,0.088,0.144,0.128,0.208l0,0c0.024,0.032,0.04,0.072,0.064,0.104l0,0c0.04,0.072,0.088,0.144,0.128,0.216l0,0
		c0.776,1.288,1.56,2.56,2.36,3.832l0,0c0.048,0.072,0.088,0.144,0.136,0.208l0,0c0.048,0.072,0.088,0.136,0.136,0.208l0,0
		c0.024,0.032,0.04,0.072,0.064,0.104l0.008,0.008c0.024,0.032,0.04,0.064,0.064,0.096l0,0c0.024,0.032,0.04,0.064,0.064,0.096
		c0,0.008,0.008,0.008,0.008,0.016c0.016,0.032,0.04,0.064,0.056,0.096c0,0.008,0,0,0,0c0.024,0.032,0.04,0.064,0.064,0.096
		c0,0.008,0.008,0.016,0.016,0.016c0.016,0.032,0.04,0.056,0.056,0.088l0.008,0.008c0.016,0.032,0.04,0.056,0.056,0.088
		c0.008,0.008,0.008,0.016,0.016,0.032c0.016,0.032,0.04,0.056,0.056,0.088c0,0.008,0,0.008,0.008,0.008
		c0.016,0.024,0.032,0.056,0.048,0.08c0.008,0.008,0.008,0.016,0.016,0.024c0.016,0.032,0.04,0.056,0.056,0.088
		c0.008,0.008,0.008,0.016,0.016,0.024c0.016,0.024,0.024,0.04,0.04,0.064c0.008,0.008,0.016,0.024,0.024,0.04
		c0.016,0.024,0.032,0.056,0.048,0.08c0.008,0.008,0.016,0.032,0.024,0.04c0.008,0.016,0.016,0.032,0.032,0.048
		c0.008,0.016,0.016,0.032,0.032,0.048c0.016,0.024,0.032,0.048,0.048,0.072c0.008,0.016,0.024,0.032,0.032,0.048
		c0.008,0.016,0.016,0.024,0.024,0.04c0.04,0.056,0.08,0.12,0.112,0.176c0.008,0.008,0.008,0.016,0.016,0.024
		c0.04,0.064,0.08,0.128,0.12,0.192l0.008,0.008c0.104,0.16,0.208,0.312,0.312,0.472l6.704-4.368
		C78.864,365.2,76.192,360.76,73.728,356.28L73.728,356.28z M90.544,382.072l-6.36,4.856c0.016,0.016,0.016,0.024,0.032,0.04
		c0.008,0.008,0.016,0.016,0.024,0.032c0.016,0.016,0.024,0.032,0.04,0.048c0.008,0.008,0.016,0.024,0.024,0.032
		c0.024,0.024,0.04,0.056,0.064,0.08c0.008,0.008,0.016,0.016,0.024,0.032c0.04,0.056,0.088,0.112,0.128,0.168
		c0.008,0.008,0.016,0.016,0.024,0.032c0.032,0.04,0.056,0.072,0.088,0.112l0,0c0.016,0.016,0.032,0.04,0.04,0.056
		c0.008,0.008,0.016,0.016,0.016,0.024c0.024,0.032,0.056,0.072,0.08,0.104c0,0,0.008,0.008,0.008,0.016
		c0.016,0.024,0.024,0.032,0.04,0.056c0,0,0.008,0.016,0.016,0.016c0.024,0.032,0.056,0.072,0.08,0.104
		c0.008,0.008,0.008,0.008,0.016,0.016c0.016,0.024,0.024,0.032,0.048,0.056c0,0.008,0.008,0.008,0.008,0.016
		c0.024,0.032,0.056,0.072,0.08,0.104c0.008,0.008,0.008,0.016,0.016,0.016c0.048,0.056,0.088,0.112,0.136,0.176
		c0.008,0.008,0.008,0.016,0.016,0.016c0.04,0.056,0.096,0.12,0.136,0.176c0.008,0.008,0.008,0.008,0.016,0.016
		c0.048,0.056,0.088,0.12,0.136,0.176c0.008,0.008,0.008,0.008,0.016,0.016c0.032,0.04,0.056,0.072,0.088,0.112l0.008,0.008
		c0.016,0.024,0.024,0.032,0.04,0.056c0.008,0.008,0.008,0.016,0.016,0.024c0.024,0.032,0.056,0.072,0.08,0.104
		c0.008,0.008,0.008,0.008,0.016,0.016c0.016,0.024,0.024,0.032,0.04,0.056c0.008,0.008,0.008,0.016,0.016,0.016
		c0.024,0.032,0.048,0.064,0.072,0.096c0.008,0.008,0.016,0.016,0.016,0.024c0.016,0.024,0.024,0.032,0.04,0.048
		c0.008,0.008,0.016,0.016,0.016,0.024c0.024,0.032,0.04,0.056,0.064,0.088c0.008,0.008,0.016,0.024,0.024,0.032
		c0.016,0.016,0.024,0.032,0.04,0.048c0.008,0.016,0.024,0.024,0.032,0.04c0.024,0.024,0.04,0.048,0.056,0.072
		c0.008,0.008,0.016,0.024,0.024,0.032c0.016,0.016,0.024,0.032,0.04,0.048s0.024,0.032,0.04,0.048
		c0.016,0.024,0.032,0.04,0.048,0.064c0.008,0.008,0.016,0.024,0.024,0.032c0.024,0.024,0.032,0.04,0.056,0.072
		c0.008,0.016,0.024,0.032,0.032,0.048c0.016,0.016,0.024,0.032,0.032,0.048c0.008,0.016,0.024,0.024,0.032,0.04
		c0.016,0.024,0.04,0.048,0.056,0.072c0.008,0.016,0.024,0.024,0.032,0.04c0.016,0.016,0.024,0.032,0.04,0.048
		c0.008,0.016,0.024,0.024,0.032,0.04c0.016,0.024,0.032,0.04,0.048,0.064c0.008,0.016,0.024,0.032,0.04,0.048
		c0.008,0.008,0.024,0.032,0.032,0.04c0.016,0.024,0.032,0.04,0.048,0.064c0.016,0.016,0.024,0.024,0.032,0.04
		c0.016,0.016,0.024,0.032,0.04,0.048c0.008,0.008,0.024,0.024,0.032,0.04c0.016,0.024,0.04,0.048,0.056,0.072
		c0.008,0.008,0.016,0.016,0.024,0.032c0.016,0.016,0.032,0.04,0.048,0.056c0.008,0.008,0.016,0.024,0.024,0.032
		c0.024,0.024,0.04,0.048,0.064,0.08c0.008,0.008,0.016,0.016,0.024,0.032c0.016,0.024,0.032,0.04,0.048,0.064
		c0.008,0.008,0.016,0.016,0.024,0.024c0.024,0.024,0.04,0.056,0.064,0.08c0.008,0.008,0.016,0.024,0.024,0.024
		c0.016,0.024,0.032,0.048,0.056,0.064c0,0,0.016,0.016,0.016,0.024c0.024,0.024,0.048,0.056,0.064,0.08
		c0.008,0.008,0.016,0.016,0.016,0.016c0.024,0.032,0.048,0.056,0.072,0.088l0.008,0.008c0.024,0.032,0.048,0.056,0.072,0.088
		c0.008,0.008,0.008,0.008,0.016,0.016c0.024,0.032,0.048,0.056,0.072,0.088l0,0c0.024,0.032,0.048,0.056,0.072,0.088
		c0.008,0.008,0.008,0.008,0.016,0.016c0.024,0.032,0.048,0.056,0.072,0.088c0.008,0.008,0,0,0,0
		c0.024,0.032,0.048,0.064,0.072,0.088c0.008,0.008,0.008,0.008,0.008,0.008c0.032,0.032,0.056,0.064,0.08,0.096l0.008,0.008
		c0.024,0.032,0.048,0.064,0.072,0.088l0,0c0.024,0.032,0.048,0.064,0.08,0.096l0.008,0.008c0.048,0.064,0.104,0.128,0.152,0.192
		c0.008,0.008,0,0,0,0.008c1.552,1.904,3.136,3.784,4.744,5.632c0.008,0.008,0,0,0.008,0.008c0.056,0.056,0.104,0.12,0.16,0.176
		c0.008,0.008,0.008,0.008,0.008,0.016c0.048,0.056,0.096,0.112,0.152,0.168c0.008,0.008,0.008,0.008,0.016,0.024
		c0.024,0.024,0.048,0.056,0.072,0.08c0,0,0.008,0.008,0.016,0.016c0.016,0.024,0.04,0.04,0.056,0.064
		c0.008,0.008,0.016,0.016,0.024,0.032c0.024,0.024,0.04,0.048,0.064,0.072c0.008,0.008,0.024,0.024,0.032,0.04
		c0.016,0.016,0.024,0.024,0.04,0.04c0.016,0.016,0.024,0.024,0.04,0.04c0.016,0.016,0.024,0.032,0.04,0.048
		c0.016,0.024,0.04,0.048,0.056,0.064c0.008,0.008,0.016,0.016,0.024,0.024c0.048,0.056,0.096,0.112,0.144,0.168l0.008,0.008
		c0.104,0.112,0.192,0.224,0.296,0.336l5.984-5.312C96.944,390.136,93.648,386.136,90.544,382.072L90.544,382.072z M110.984,405.112
		l-5.576,5.736c3.824,3.72,7.784,7.296,11.872,10.728l5.144-6.128C118.496,412.152,114.648,408.68,110.984,405.112L110.984,405.112z
		 M134.576,424.896l-4.672,6.488c0.976,0.704,1.968,1.4,2.952,2.088l0,0c0.064,0.048,0.136,0.096,0.2,0.136c0.008,0,0,0,0.008,0.008
		c0.032,0.024,0.064,0.048,0.096,0.072c0.008,0,0,0,0,0c0.032,0.024,0.064,0.04,0.088,0.064c0.008,0,0.008,0.008,0.016,0.008
		c0.032,0.024,0.064,0.04,0.096,0.064l0.008,0.008c0.024,0.016,0.056,0.04,0.08,0.056c0.008,0,0.016,0.008,0.016,0.016
		c0.032,0.024,0.056,0.04,0.088,0.064c0,0,0.016,0.008,0.024,0.016c0.024,0.016,0.048,0.032,0.072,0.048
		c0.008,0.008,0.008,0.008,0.024,0.016c0.032,0.016,0.056,0.04,0.088,0.056c0.008,0.008,0.016,0.016,0.032,0.024
		c0.024,0.016,0.04,0.032,0.064,0.04c0.008,0.008,0.016,0.008,0.024,0.016c0.024,0.016,0.056,0.04,0.08,0.056
		c0.008,0.008,0.024,0.016,0.04,0.024c0.016,0.016,0.04,0.024,0.056,0.04c0.008,0.008,0.032,0.024,0.04,0.032
		c0.024,0.016,0.04,0.032,0.064,0.048c0.008,0.008,0.024,0.016,0.04,0.024c0.016,0.016,0.04,0.024,0.056,0.04
		c0.016,0.008,0.04,0.024,0.056,0.04c0.016,0.008,0.032,0.024,0.048,0.032c0.016,0.008,0.032,0.016,0.048,0.032
		c0.016,0.008,0.032,0.024,0.048,0.032c0.032,0.016,0.048,0.032,0.072,0.048c0.016,0.008,0.024,0.016,0.04,0.024
		c0.016,0.008,0.032,0.024,0.048,0.032c0.008,0.008,0.016,0.016,0.032,0.024c0.024,0.016,0.064,0.04,0.096,0.064
		c0.008,0.008,0.016,0.008,0.024,0.016c0.056,0.04,0.12,0.08,0.176,0.12c0.008,0.008,0.016,0.008,0.024,0.016
		c0.064,0.04,0.12,0.08,0.184,0.12c0.008,0,0.008,0.008,0.016,0.008c0.064,0.04,0.128,0.088,0.184,0.128l0.008,0.008
		c2.576,1.736,5.192,3.416,7.84,5.048l4.184-6.816C143.04,430.76,138.728,427.888,134.576,424.896L134.576,424.896z
		 M160.816,440.992l-3.664,7.112l0,0c0.032,0.016,0.064,0.032,0.096,0.048l0.016,0.008c0.072,0.032,0.136,0.072,0.208,0.104
		l0.016,0.008c0.072,0.032,0.136,0.072,0.208,0.104c0.008,0,0.008,0,0.008,0.008c0.072,0.032,0.136,0.072,0.208,0.104
		c0.008,0,0.008,0,0.008,0.008c0.032,0.016,0.072,0.04,0.104,0.056c0.008,0-0.008,0,0,0c0.032,0.016,0.072,0.032,0.104,0.056
		c0.008,0,0,0,0,0c0.04,0.024,0.08,0.04,0.112,0.056l0,0c0.032,0.016,0.072,0.04,0.104,0.056h0.008
		c0.04,0.016,0.072,0.04,0.104,0.056h0.008c0.032,0.016,0.072,0.032,0.104,0.056l0,0c0.04,0.016,0.072,0.04,0.112,0.056h0.008
		c0.072,0.04,0.144,0.072,0.216,0.112c0.008,0,0,0,0.008,0c0.072,0.04,0.144,0.072,0.216,0.112c0.008,0,0,0,0,0
		c0.08,0.04,0.152,0.08,0.224,0.112h0.008c0.072,0.04,0.144,0.072,0.216,0.112l0,0c0.072,0.04,0.144,0.072,0.216,0.112l0,0
		c1.192,0.592,2.384,1.176,3.592,1.744l0,0c0.072,0.032,0.152,0.072,0.224,0.104l0,0c0.072,0.032,0.152,0.072,0.224,0.104h0.008
		c0.072,0.032,0.144,0.072,0.224,0.104h0.008c0.072,0.032,0.144,0.064,0.216,0.104l0.016,0.008c0.072,0.032,0.144,0.064,0.216,0.104
		c0.008,0,0.008,0,0.008,0.008c0.072,0.032,0.144,0.064,0.216,0.104c0.008,0,0,0,0.008,0.008c0.072,0.032,0.144,0.064,0.216,0.104
		c0.008,0,0,0,0,0c0.04,0.016,0.08,0.032,0.112,0.056l0.008,0.008c0.032,0.016,0.064,0.032,0.096,0.048
		c0.008,0,0.008,0.008,0.016,0.008c0.032,0.016,0.072,0.032,0.104,0.048l0.008,0.008c0.032,0.016,0.064,0.032,0.096,0.048
		l0.016,0.008c0.032,0.016,0.064,0.032,0.104,0.048c0.008,0,0.016,0.008,0.016,0.008c0.04,0.016,0.064,0.032,0.096,0.04
		c0.008,0,0.008,0.008,0.016,0.008c0.032,0.016,0.064,0.032,0.096,0.048c0.008,0,0.016,0.008,0.024,0.008
		c0.032,0.016,0.064,0.024,0.088,0.04c0.008,0,0.008,0,0.008,0.008c0.032,0.016,0.064,0.032,0.096,0.048
		c0.016,0.008,0.016,0.008,0.032,0.016c0.024,0.016,0.056,0.024,0.08,0.04c0.008,0,0.024,0.008,0.024,0.016
		c0.032,0.016,0.056,0.024,0.088,0.04c0.016,0.008,0.016,0.008,0.032,0.016c0.024,0.016,0.056,0.024,0.08,0.04
		c0.016,0.008,0.016,0.008,0.032,0.016c0.024,0.016,0.056,0.024,0.08,0.04c0.016,0.008,0.024,0.008,0.032,0.016
		c0.024,0.016,0.056,0.024,0.08,0.04c0.016,0.008,0.024,0.008,0.04,0.016c0.024,0.008,0.048,0.024,0.072,0.032
		c0.016,0.008,0.024,0.008,0.04,0.016c0.024,0.008,0.056,0.024,0.08,0.04c0.016,0.008,0.032,0.016,0.048,0.024
		s0.04,0.016,0.056,0.024s0.024,0.016,0.048,0.024s0.04,0.024,0.064,0.032c0.016,0.008,0.048,0.024,0.064,0.032
		c0.016,0.008,0.032,0.016,0.048,0.024s0.032,0.016,0.048,0.024c0.024,0.008,0.04,0.016,0.064,0.024s0.048,0.024,0.072,0.032
		c0.016,0.008,0.024,0.008,0.04,0.016c0.064,0.032,0.136,0.064,0.2,0.088c0.008,0,0.016,0.008,0.024,0.008
		c0.072,0.032,0.136,0.064,0.208,0.096c0.008,0,0.008,0.008,0.016,0.008c0.072,0.032,0.144,0.064,0.216,0.096l0,0
		c1.208,0.536,2.408,1.064,3.624,1.576l3.128-7.36C170.056,445.544,165.368,443.336,160.816,440.992L160.816,440.992z
		 M189.144,453.024l-2.568,7.576c2.2,0.744,4.416,1.456,6.648,2.136c0.008,0,0,0,0.008,0c0.072,0.024,0.152,0.048,0.224,0.072
		c0.008,0,0.016,0,0.016,0.008c0.032,0.008,0.064,0.024,0.104,0.032c0.008,0,0,0,0.008,0c0.032,0.008,0.072,0.024,0.104,0.032
		c0.008,0,0.016,0.008,0.024,0.008c0.032,0.008,0.056,0.016,0.088,0.024c0.008,0,0.016,0.008,0.024,0.008
		c0.032,0.008,0.064,0.016,0.096,0.032c0.016,0,0.024,0.008,0.04,0.008c0.024,0.008,0.048,0.016,0.064,0.024
		c0.024,0.008,0.032,0.008,0.048,0.016c0.024,0.008,0.056,0.016,0.08,0.024c0.016,0,0.04,0.008,0.048,0.016
		c0.016,0.008,0.04,0.008,0.056,0.016c0.024,0.008,0.048,0.016,0.072,0.024c0.016,0.008,0.04,0.008,0.056,0.016
		s0.04,0.008,0.056,0.016c0.016,0,0.024,0.008,0.04,0.008c0.04,0.008,0.08,0.024,0.12,0.032c0,0,0.016,0.008,0.024,0.008
		c0.024,0.008,0.04,0.016,0.072,0.024c0.008,0,0.016,0.008,0.024,0.008c0.072,0.024,0.152,0.04,0.224,0.064c0.008,0,0.008,0,0.016,0
		c2.304,0.68,4.616,1.312,6.952,1.92l2-7.744C198.952,456.152,193.992,454.672,189.144,453.024L189.144,453.024z M218.952,460.712
		l-1.416,7.872c3.568,0.64,7.16,1.192,10.776,1.656h0.008c0.08,0.008,0.16,0.024,0.232,0.032c0.008,0,0.016,0,0.024,0
		c0.072,0.008,0.152,0.016,0.224,0.024c0.016,0,0.024,0,0.04,0.008c0.024,0,0.048,0.008,0.064,0.008c0.016,0,0.024,0,0.04,0.008
		c0.032,0.008,0.064,0.008,0.104,0.016c0.016,0,0.032,0,0.048,0.008c0.016,0,0.04,0.008,0.056,0.008
		c0.024,0,0.048,0.008,0.064,0.008c0.024,0,0.048,0.008,0.072,0.008s0.04,0.008,0.064,0.008c0.016,0,0.032,0.008,0.048,0.008
		c0.032,0,0.056,0.008,0.088,0.008c0.016,0,0.024,0,0.032,0.008c0.032,0,0.056,0.008,0.088,0.008c0.016,0,0.024,0,0.032,0.008
		c0.032,0,0.064,0.008,0.104,0.016h0.008c0.04,0.008,0.072,0.008,0.112,0.016c0.008,0,0.016,0,0.024,0
		c0.08,0.008,0.152,0.016,0.232,0.024c0.008,0,0.008,0,0.016,0c1.08,0.128,2.16,0.248,3.24,0.36l0.832-7.96
		C229.112,462.344,223.976,461.616,218.952,460.712L218.952,460.712z M265,463.808c-2.984,0.128-5.984,0.192-9,0.192
		c-2.152,0-4.288-0.032-6.424-0.096l-0.24,8c0.312,0.008,0.624,0.016,0.936,0.024h0.008c0.032,0,0.056,0,0.088,0
		c0.008,0,0.016,0,0.024,0c0.024,0,0.048,0,0.072,0c0.008,0,0.024,0,0.032,0c0.016,0,0.04,0,0.056,0s0.024,0,0.04,0
		c0.024,0,0.04,0,0.064,0s0.056,0,0.08,0c0.016,0,0.032,0,0.048,0c0.024,0,0.04,0,0.064,0c0.008,0,0.016,0,0.032,0
		c0.024,0,0.04,0,0.064,0c0.008,0,0.016,0,0.024,0c0.024,0,0.048,0,0.072,0h0.016c0.144,0,0.28,0.008,0.424,0.008l0,0
		c0.696,0.016,1.384,0.024,2.08,0.032h0.008c0.032,0,0.056,0,0.08,0h0.008c0.12,0,0.232,0,0.344,0l0,0c0.024,0,0.048,0,0.072,0
		c0.008,0,0.016,0,0.024,0c0.032,0,0.04,0,0.072,0c0.008,0,0.016,0,0.024,0c0.024,0,0.048,0,0.064,0c0.008,0,0.016,0,0.024,0
		c0.072,0,0.152,0,0.224,0c0.008,0,0.016,0,0.024,0c0.024,0,0.032,0,0.056,0c0.016,0,0.024,0,0.04,0c0.016,0,0.04,0,0.056,0
		s0.024,0,0.04,0c0.024,0,0.032,0,0.056,0c0.016,0,0.032,0,0.04,0c0.016,0,0.04,0,0.048,0c0.024,0,0.048,0,0.072,0s0.032,0,0.056,0
		c0.016,0,0.04,0,0.056,0s0.032,0,0.04,0c0.016,0,0.04,0,0.056,0s0.032,0,0.048,0s0.032,0,0.056,0c0.016,0,0.024,0,0.04,0
		c0.024,0,0.04,0,0.064,0c0.016,0,0.024,0,0.032,0c0.032,0,0.064,0,0.096,0c0.008,0,0.016,0,0.024,0c0.024,0,0.048,0,0.072,0
		c0.016,0,0.024,0,0.04,0c0.024,0,0.04,0,0.064,0c0.016,0,0.024,0,0.04,0c0.016,0,0.04,0,0.056,0s0.024,0,0.04,0
		c0.024,0,0.04,0,0.064,0c0.016,0,0.016,0,0.032,0c0.032,0,0.064,0,0.096,0l0,0c0.032,0,0.056,0,0.08,0c0.008,0,0.016,0,0.024,0
		c0.016,0,0.04,0,0.056,0c0.008,0,0.016,0,0.032,0c0.016,0,0.04,0,0.056,0c0.008,0,0.016,0,0.024,0c0.016,0,0.04,0,0.056,0
		c0.008,0,0.016,0,0.024,0c0.032,0,0.048,0,0.08,0l0,0c0.032,0,0.056,0,0.08,0c0.008,0,0.016,0,0.016,0c0.032,0,0.048,0,0.072,0
		c0,0,0.016,0,0.024,0c0.016,0,0.04,0,0.056,0c0.008,0,0.016,0,0.032,0c0.016,0,0.04,0,0.056,0c0.008,0,0.016,0,0.024,0
		c0.032,0,0.04,0,0.072,0h0.008c0.032,0,0.056,0,0.088,0c0,0,0,0,0.008,0c0.032,0,0.048,0,0.08,0c0.008,0,0.016,0,0.016,0
		c0.024,0,0.048,0,0.064,0c0.008,0,0.008,0,0.016,0c0.032,0,0.04,0,0.072,0h0.008c0.088,0,0.168,0,0.256,0h0.008
		c0.032,0,0.048,0,0.08,0c0,0,0.008,0,0.016,0c0.032,0,0.048,0,0.08,0c0,0,0,0,0.008,0c0.144,0,0.288,0,0.432,0l0,0
		c2.424-0.024,4.832-0.088,7.24-0.192L265,463.808L265,463.808z M295.576,460.24c-5.016,0.968-10.136,1.76-15.224,2.352l0.928,7.944
		c1.472-0.168,2.952-0.36,4.416-0.56h0.008c0.088-0.008,0.16-0.024,0.248-0.032h0.008c0.08-0.008,0.16-0.024,0.24-0.032
		c0.008,0,0.016,0,0.016,0c0.08-0.008,0.152-0.024,0.232-0.032c0.008,0,0.016,0,0.016,0c0.024,0,0.048-0.008,0.072-0.008h0.008
		c0.048-0.008,0.096-0.016,0.144-0.024c0.008,0,0.016,0,0.024,0c0.024,0,0.048-0.008,0.072-0.008c0.008,0,0.016,0,0.016,0
		c0.04-0.008,0.088-0.016,0.128-0.016c0.008,0,0.016,0,0.032-0.008c0.024-0.008,0.04-0.008,0.072-0.008c0.008,0,0.016,0,0.024,0
		c0.04-0.008,0.088-0.016,0.128-0.016c0.008,0,0.016,0,0.032-0.008c0.024,0,0.04-0.008,0.064-0.008c0.008,0,0.024,0,0.032-0.008
		c0.032-0.008,0.08-0.008,0.112-0.016c0.016,0,0.024,0,0.04-0.008c0.024,0,0.04-0.008,0.064-0.008c0.016,0,0.032-0.008,0.048-0.008
		c0.032-0.008,0.056-0.008,0.096-0.016c0.016,0,0.032-0.008,0.048-0.008c0.024,0,0.04-0.008,0.056-0.008s0.032-0.008,0.048-0.008
		c0.024,0,0.04-0.008,0.056-0.008c0.032-0.008,0.056-0.008,0.088-0.016c0.024,0,0.032-0.008,0.056-0.008
		c0.016,0,0.032-0.008,0.056-0.008s0.032-0.008,0.056-0.008c0.032-0.008,0.064-0.008,0.088-0.016c0.024,0,0.032-0.008,0.048-0.008
		s0.04-0.008,0.056-0.008c0.024,0,0.024-0.008,0.048-0.008c0.032-0.008,0.064-0.008,0.096-0.016c0.016,0,0.032-0.008,0.048-0.008
		c0.024,0,0.048-0.008,0.064-0.008c0.024,0,0.024,0,0.04-0.008c0.032-0.008,0.064-0.008,0.096-0.016c0.016,0,0.024,0,0.04-0.008
		c0.024,0,0.048-0.008,0.072-0.008c0.016,0,0.024,0,0.04-0.008c0.032-0.008,0.064-0.008,0.096-0.016c0.016,0,0.024,0,0.04-0.008
		c0.024,0,0.048-0.008,0.072-0.008c0.016,0,0.024-0.008,0.04-0.008c0.032-0.008,0.064-0.008,0.096-0.016
		c0.008,0,0.024,0,0.032-0.008c0.024,0,0.056-0.008,0.08-0.016c0.016,0,0.024,0,0.04-0.008c0.032-0.008,0.056-0.008,0.088-0.016
		c0.016,0,0.016,0,0.032-0.008c0.032-0.008,0.064-0.008,0.088-0.016c0.016,0,0.016,0,0.032-0.008
		c0.032-0.008,0.064-0.008,0.088-0.016c0.008,0,0.016,0,0.016,0c0.032-0.008,0.072-0.008,0.104-0.016c0.016,0,0.016,0,0.032-0.008
		c0.032-0.008,0.064-0.008,0.096-0.016c0.008,0,0.008,0,0.016,0c0.04-0.008,0.072-0.008,0.112-0.016c0.008,0,0.016,0,0.024-0.008
		c0.032-0.008,0.064-0.008,0.096-0.016c0.008,0,0.008,0,0.016,0c0.04-0.008,0.072-0.016,0.112-0.016c0.008,0,0.008,0,0.016,0
		c0.032-0.008,0.072-0.008,0.104-0.016h0.008c0.04-0.008,0.08-0.016,0.112-0.016h0.008c0.032-0.008,0.072-0.008,0.104-0.016h0.016
		c0.04-0.008,0.08-0.016,0.112-0.016h0.008c0.04-0.008,0.072-0.016,0.112-0.016h0.008c0.08-0.016,0.16-0.024,0.24-0.04
		c0.008,0,0,0,0.008,0c1.968-0.32,3.928-0.672,5.88-1.048L295.576,460.24L295.576,460.24z M325.28,452.184
		c-4.824,1.704-9.768,3.248-14.704,4.584l2.096,7.72c3.352-0.912,6.672-1.896,9.96-2.96c0.008,0,0,0,0,0
		c0.08-0.024,0.152-0.048,0.232-0.072c0,0,0,0,0.008,0c0.08-0.024,0.152-0.048,0.232-0.072c0.008,0,0.008,0,0.008,0
		c0.04-0.008,0.072-0.024,0.112-0.04l0,0c0.04-0.008,0.072-0.024,0.112-0.04c0.008,0,0.008,0,0.016-0.008
		c0.032-0.008,0.072-0.024,0.104-0.032h0.008c0.04-0.008,0.072-0.024,0.112-0.032c0.008,0,0.016-0.008,0.016-0.008
		c0.04-0.016,0.08-0.024,0.112-0.04l0,0c0.032-0.008,0.072-0.024,0.104-0.032c0.008,0,0.016-0.008,0.024-0.008
		c0.032-0.008,0.072-0.024,0.104-0.032h0.008c0.032-0.008,0.072-0.024,0.104-0.032c0.016-0.008,0.008,0,0.024-0.008
		c0.032-0.008,0.064-0.024,0.096-0.032c0,0,0.008,0,0.016-0.008c0.032-0.008,0.072-0.024,0.104-0.032
		c0.016-0.008,0.016-0.008,0.024-0.008c0.032-0.008,0.064-0.024,0.096-0.032c0.008,0,0.008,0,0.008,0
		c0.032-0.008,0.072-0.024,0.104-0.032c0.016-0.008,0.016-0.008,0.024-0.008c0.032-0.008,0.064-0.024,0.104-0.032l0,0
		c0.032-0.008,0.072-0.024,0.104-0.032c0.016-0.008,0.016-0.008,0.024-0.008c0.032-0.008,0.064-0.024,0.096-0.032h0.008
		c0.032-0.008,0.072-0.024,0.104-0.032c0.016-0.008,0.016-0.008,0.024-0.008c0.032-0.008,0.072-0.024,0.104-0.032h0.008
		c0.032-0.008,0.064-0.024,0.104-0.032c0.016-0.008,0.008,0,0.024-0.008c0.032-0.008,0.072-0.024,0.104-0.04l0,0
		c0.032-0.008,0.072-0.024,0.104-0.032c0.016-0.008,0.008,0,0.024-0.008c0.032-0.008,0.072-0.024,0.104-0.032h0.008
		c0.032-0.008,0.064-0.024,0.096-0.032c0.016-0.008,0.008,0,0.024-0.008c0.032-0.008,0.072-0.024,0.104-0.032h0.008
		c0.032-0.008,0.064-0.024,0.104-0.032c0.008,0,0.016-0.008,0.024-0.008c0.032-0.016,0.072-0.024,0.104-0.04h0.008
		c0.032-0.008,0.072-0.024,0.104-0.032l0.016-0.008c0.04-0.016,0.072-0.024,0.112-0.04l0,0c0.04-0.016,0.072-0.024,0.112-0.04
		c0.008,0,0.008,0,0.016-0.008c0.072-0.024,0.152-0.048,0.224-0.08c0.008,0,0,0,0,0c0.08-0.032,0.16-0.056,0.232-0.08
		c0.008,0,0,0,0.008,0c0.352-0.12,0.704-0.248,1.056-0.368L325.28,452.184L325.28,452.184z M353.464,439.8
		c-4.52,2.4-9.184,4.664-13.864,6.72l3.216,7.32c0.016-0.008,0.032-0.016,0.048-0.024l0,0c4.88-2.144,9.664-4.464,14.352-6.952
		L353.464,439.8L353.464,439.8z M379.504,423.376c-4.112,3.04-8.392,5.968-12.72,8.696l4.264,6.768c0.88-0.56,1.76-1.12,2.632-1.688
		l0,0c0.072-0.048,0.136-0.088,0.208-0.136c0.008,0,0,0,0,0c0.072-0.048,0.136-0.088,0.208-0.136h0.008
		c0.032-0.024,0.064-0.04,0.104-0.064h0.008c0.032-0.024,0.064-0.04,0.096-0.064l0,0c0.032-0.024,0.064-0.04,0.096-0.064
		c0.008,0,0.008-0.008,0.016-0.008c0.064-0.04,0.128-0.088,0.2-0.128c0.008,0,0.008,0,0.008-0.008
		c0.064-0.04,0.128-0.088,0.192-0.128c0.008,0,0.008-0.008,0.008-0.008c0.072-0.048,0.136-0.088,0.192-0.128
		c0.008,0,0.016-0.008,0.016-0.008c0.04-0.024,0.072-0.048,0.096-0.064c0.008,0,0,0,0.008-0.008c0.032-0.016,0.056-0.04,0.088-0.056
		c0,0,0.016-0.008,0.024-0.016c0.032-0.016,0.064-0.04,0.088-0.056c0.008,0,0.008-0.008,0.016-0.008
		c0.024-0.016,0.056-0.032,0.08-0.056c0.008,0,0.016-0.008,0.024-0.016c0.032-0.016,0.056-0.04,0.088-0.056
		c0.008,0,0.016-0.008,0.024-0.016c0.024-0.016,0.048-0.032,0.072-0.048c0.008-0.008,0.016-0.008,0.024-0.016
		c0.032-0.016,0.056-0.04,0.088-0.056c0.008,0,0.024-0.016,0.024-0.016c0.024-0.016,0.048-0.032,0.072-0.048
		c0.008-0.008,0.016-0.008,0.024-0.016c0.032-0.016,0.056-0.04,0.08-0.056c0.008-0.008,0.024-0.016,0.032-0.024
		c0.024-0.016,0.04-0.032,0.064-0.04c0.008-0.008,0.024-0.016,0.032-0.024c0.024-0.016,0.048-0.032,0.072-0.048
		c0.008-0.008,0.024-0.016,0.032-0.024c0.024-0.016,0.048-0.032,0.064-0.048c0.008-0.008,0.032-0.024,0.04-0.032
		c0.024-0.016,0.04-0.032,0.064-0.04c0.008-0.008,0.024-0.016,0.04-0.024c0.024-0.016,0.048-0.032,0.072-0.048
		c0.008-0.008,0.024-0.016,0.032-0.024c0.016-0.016,0.04-0.024,0.056-0.04c0.008-0.008,0.024-0.016,0.04-0.024
		c0.024-0.016,0.056-0.032,0.08-0.056c0.008-0.008,0.024-0.016,0.032-0.024c0.016-0.016,0.04-0.024,0.056-0.04
		c0.008-0.008,0.024-0.016,0.032-0.024c0.024-0.016,0.048-0.032,0.08-0.048c0.016-0.008,0.024-0.016,0.04-0.032
		c0.016-0.008,0.032-0.024,0.048-0.032c0.016-0.008,0.024-0.016,0.04-0.032c0.024-0.016,0.048-0.032,0.072-0.048
		c0.016-0.008,0.032-0.016,0.048-0.032c0.016-0.008,0.024-0.016,0.04-0.032c0.024-0.016,0.048-0.032,0.072-0.048
		c0.016-0.008,0.024-0.016,0.04-0.032c0.016-0.008,0.032-0.024,0.048-0.032c0.008-0.008,0.024-0.016,0.032-0.024
		c0.032-0.024,0.056-0.04,0.088-0.064c0.008-0.008,0.016-0.016,0.024-0.016c0.024-0.016,0.032-0.024,0.056-0.04
		c0.008-0.008,0.016-0.008,0.024-0.016c0.032-0.024,0.064-0.048,0.104-0.072c0.008-0.008,0.016-0.008,0.016-0.016
		c0.024-0.016,0.04-0.024,0.064-0.04l0.008-0.008c0.032-0.024,0.08-0.056,0.112-0.08c0.008,0,0.008-0.008,0.016-0.008
		c0.064-0.048,0.12-0.08,0.192-0.128c0.008,0,0.008-0.008,0.016-0.008c0.064-0.048,0.128-0.088,0.192-0.136l0.008-0.008
		c0.064-0.048,0.128-0.088,0.2-0.136l0,0c1.936-1.336,3.856-2.704,5.752-4.104L379.504,423.376L379.504,423.376z M402.856,403.304
		c-3.624,3.616-7.424,7.136-11.304,10.472l5.216,6.064c1.928-1.656,3.824-3.352,5.696-5.072l0,0c0.064-0.056,0.12-0.112,0.176-0.168
		c0.008-0.008,0,0,0.008,0c0.032-0.024,0.056-0.056,0.088-0.08l0,0c0.032-0.024,0.056-0.056,0.088-0.08l0.008-0.008
		c0.032-0.024,0.056-0.056,0.088-0.08l0,0c0.056-0.056,0.12-0.112,0.176-0.168c0.008-0.008,0,0,0,0
		c0.064-0.056,0.12-0.112,0.176-0.168c0.008-0.008,0.008-0.008,0.008-0.008c0.056-0.056,0.112-0.104,0.168-0.16l0.016-0.016
		c0.056-0.056,0.112-0.104,0.168-0.16c0.008-0.008,0.008-0.008,0.016-0.008c0.032-0.024,0.056-0.056,0.088-0.08c0.008-0.008,0,0,0,0
		c0.032-0.032,0.056-0.056,0.08-0.08c0.008-0.008,0.008-0.008,0.016-0.016c0.024-0.024,0.056-0.048,0.08-0.08l0.008-0.008
		c0.024-0.024,0.048-0.048,0.08-0.072l0.008-0.008c0.024-0.024,0.056-0.056,0.08-0.08l0.016-0.008
		c0.024-0.024,0.048-0.048,0.072-0.072c0.008-0.008,0.008-0.008,0.008-0.008c0.024-0.024,0.056-0.048,0.08-0.072
		c0.008-0.008,0.008-0.008,0.016-0.016c0.024-0.024,0.048-0.048,0.08-0.072c0.008-0.008,0,0,0.008-0.008
		c0.024-0.024,0.056-0.048,0.08-0.08c0.008-0.008,0.008-0.008,0.016-0.016c0.056-0.056,0.112-0.104,0.168-0.16
		c0.008-0.008,0.008-0.008,0.016-0.016c0.032-0.024,0.056-0.056,0.088-0.08c0.008-0.008,0,0,0,0c0.024-0.024,0.056-0.056,0.08-0.08
		c0.008-0.008,0.008-0.008,0.008-0.008c0.032-0.024,0.056-0.056,0.08-0.08l0.008-0.008c0.024-0.024,0.056-0.056,0.08-0.08l0,0
		c0.032-0.024,0.056-0.056,0.088-0.08l0.008-0.008c0.032-0.024,0.056-0.056,0.08-0.08l0,0c0.032-0.024,0.056-0.056,0.088-0.08
		c0.008-0.008,0.008-0.008,0.008-0.008c0.056-0.056,0.112-0.112,0.168-0.16l0.008-0.008c0.056-0.056,0.112-0.112,0.168-0.16
		c0.008-0.008,0.008-0.008,0.008-0.008c0.056-0.056,0.112-0.112,0.176-0.168l0.008-0.008c0.896-0.864,1.792-1.744,2.68-2.624
		L402.856,403.304L402.856,403.304z M423,380.016c-3.048,4.104-6.296,8.144-9.648,12.016l6.048,5.232
		c0.008-0.008,0.016-0.016,0.016-0.016c0.016-0.016,0.032-0.032,0.04-0.048c0.016-0.016,0.032-0.032,0.04-0.048
		c0.016-0.016,0.032-0.032,0.04-0.048c0.008-0.008,0.024-0.024,0.032-0.032c0.024-0.024,0.04-0.048,0.064-0.072
		c0.008-0.008,0.016-0.016,0.024-0.024c0.016-0.016,0.032-0.04,0.048-0.056c0.008-0.008,0.016-0.024,0.024-0.032
		c0.024-0.024,0.04-0.048,0.064-0.072c0.008-0.008,0.016-0.016,0.024-0.024c0.016-0.024,0.032-0.04,0.056-0.064
		c0.008-0.008,0.016-0.016,0.024-0.024c0.024-0.024,0.048-0.056,0.064-0.08c0.008-0.008,0.016-0.016,0.016-0.024
		c0.016-0.024,0.04-0.048,0.056-0.064c0.008-0.008,0.008-0.008,0.016-0.016c0.024-0.024,0.048-0.056,0.072-0.08
		c0,0,0.008-0.016,0.016-0.016c0.024-0.024,0.048-0.056,0.072-0.08c0.008-0.008,0,0,0-0.008c0.024-0.032,0.048-0.056,0.072-0.088
		c0.008-0.008,0.008-0.008,0.016-0.016c0.048-0.056,0.104-0.12,0.152-0.176c0.008-0.008,0.008-0.008,0.008-0.008
		c0.048-0.064,0.104-0.12,0.152-0.184c0.008-0.008,0,0,0.008-0.008c0.024-0.032,0.048-0.064,0.08-0.088l0,0
		c0.024-0.032,0.056-0.064,0.08-0.096l0,0c2.992-3.528,5.872-7.144,8.632-10.864L423,380.016L423,380.016z M439.504,354.024
		c-2.416,4.504-5.024,8.984-7.768,13.304l6.752,4.288c2.856-4.496,5.544-9.096,8.064-13.816L439.504,354.024L439.504,354.024z
		 M451.976,325.88c-1.72,4.816-3.64,9.624-5.712,14.304l7.312,3.24c0.312-0.712,0.624-1.416,0.936-2.136l0,0
		c0.008-0.024,0.016-0.048,0.032-0.072c0-0.008,0-0.008,0.008-0.016c0.016-0.04,0.04-0.088,0.056-0.128
		c0-0.008,0.008-0.008,0.008-0.016c0.008-0.024,0.016-0.04,0.032-0.064c0-0.008,0.008-0.016,0.008-0.024
		c0.016-0.04,0.032-0.072,0.048-0.112c0.008-0.008,0.008-0.016,0.016-0.032c0.008-0.024,0.016-0.032,0.024-0.064
		c0.008-0.008,0.008-0.024,0.016-0.032c0.016-0.04,0.024-0.064,0.04-0.096c0.008-0.016,0.008-0.024,0.016-0.04
		c0.008-0.016,0.016-0.04,0.024-0.056s0.016-0.032,0.024-0.048c0.008-0.024,0.024-0.048,0.032-0.072
		c0.008-0.016,0.016-0.032,0.024-0.056c0.008-0.016,0.016-0.032,0.024-0.048c0.008-0.024,0.016-0.048,0.032-0.064
		c0.008-0.016,0.016-0.04,0.024-0.056c0.008-0.024,0.016-0.04,0.024-0.064c0.008-0.016,0.008-0.024,0.016-0.04
		c0.016-0.032,0.024-0.056,0.04-0.088c0.008-0.016,0.008-0.024,0.016-0.04c0.008-0.024,0.016-0.04,0.024-0.064
		c0.008-0.016,0.008-0.024,0.016-0.04c0.016-0.032,0.024-0.056,0.04-0.088c0.008-0.016,0.008-0.024,0.016-0.04
		c0.008-0.024,0.016-0.04,0.024-0.064c0.008-0.016,0.008-0.024,0.016-0.04c0.016-0.032,0.024-0.064,0.04-0.088
		c0.008-0.016,0.008-0.016,0.016-0.032c0.008-0.024,0.024-0.048,0.032-0.072c0,0,0.008-0.024,0.016-0.032
		c0.016-0.032,0.024-0.064,0.04-0.096c0.008-0.016,0.008-0.024,0.016-0.032c0.008-0.024,0.024-0.048,0.032-0.072l0.008-0.024
		c0.016-0.032,0.024-0.064,0.04-0.096c0-0.008,0.008-0.024,0.016-0.032c0.008-0.024,0.024-0.056,0.032-0.08
		c0.008-0.016,0.008-0.008,0.008-0.024c0.016-0.032,0.024-0.064,0.04-0.096c0-0.008,0.008-0.024,0.008-0.024
		c0.016-0.032,0.024-0.064,0.04-0.088c0.008-0.016,0-0.008,0.008-0.024c0.016-0.032,0.024-0.064,0.04-0.096l0.008-0.024
		c0.008-0.032,0.024-0.056,0.032-0.088c0-0.008,0.008-0.008,0.008-0.016c0.016-0.032,0.024-0.064,0.04-0.096
		c0-0.008,0.008-0.024,0.008-0.032c0.016-0.032,0.024-0.064,0.04-0.088c0-0.008,0-0.008,0.008-0.008
		c0.016-0.032,0.024-0.064,0.04-0.104c0-0.008,0.008-0.024,0.008-0.024c0.016-0.032,0.024-0.064,0.04-0.088c0-0.008,0-0.008,0-0.008
		c0.016-0.04,0.032-0.072,0.04-0.104c0.008-0.016,0.008-0.016,0.016-0.032c0.016-0.032,0.024-0.064,0.04-0.096V337.8
		c0.016-0.032,0.024-0.064,0.04-0.104c0.008-0.016,0.008-0.016,0.008-0.024c0.016-0.032,0.024-0.072,0.04-0.104v-0.008
		c0.016-0.032,0.024-0.064,0.04-0.096c0.008-0.016,0.008-0.016,0.008-0.032c0.016-0.032,0.024-0.064,0.04-0.096
		c0-0.008,0-0.008,0.008-0.008c0.016-0.032,0.024-0.064,0.04-0.088c0.008-0.016,0.008-0.016,0.016-0.032
		c0.016-0.032,0.024-0.064,0.04-0.096c0-0.008,0.008-0.016,0.008-0.016c0.008-0.032,0.024-0.056,0.032-0.08
		c0.008-0.016,0.008-0.016,0.016-0.032c0.016-0.032,0.024-0.064,0.04-0.096c0-0.008,0.008-0.016,0.008-0.024
		c0.008-0.024,0.024-0.056,0.032-0.08c0-0.008,0.008-0.024,0.016-0.032c0.016-0.032,0.024-0.064,0.04-0.096
		c0.008-0.016,0.008-0.016,0.008-0.024c0.008-0.024,0.024-0.048,0.032-0.08c0-0.008,0.008-0.024,0.016-0.032
		c0.016-0.032,0.024-0.064,0.04-0.096c0.008-0.016,0.008-0.016,0.008-0.024c0.008-0.024,0.024-0.048,0.032-0.08
		c0,0,0.008-0.024,0.016-0.032c0.016-0.032,0.024-0.064,0.04-0.096c0.008-0.016,0.008-0.016,0.016-0.032
		c0.008-0.024,0.016-0.048,0.024-0.072c0.008-0.016,0.008-0.024,0.016-0.04c0.008-0.032,0.024-0.064,0.04-0.088
		c0.008-0.016,0.008-0.024,0.016-0.04c0.008-0.024,0.016-0.048,0.024-0.072c0.008-0.016,0.008-0.016,0.016-0.032
		c0.016-0.032,0.024-0.064,0.04-0.096c0.008-0.016,0.008-0.024,0.016-0.04c0.008-0.024,0.016-0.048,0.024-0.064
		s0.008-0.024,0.016-0.04c0.008-0.032,0.024-0.064,0.04-0.088c0.008-0.016,0.008-0.024,0.016-0.04
		c0.008-0.024,0.016-0.048,0.024-0.072c0.008-0.016,0.008-0.024,0.016-0.032c0.008-0.032,0.024-0.064,0.04-0.088
		c0.008-0.016,0.008-0.024,0.016-0.04c0.008-0.024,0.016-0.048,0.024-0.072c0.008-0.016,0.008-0.024,0.016-0.032
		c0.008-0.032,0.024-0.056,0.032-0.088c0.008-0.016,0.008-0.024,0.016-0.04c0.008-0.024,0.016-0.048,0.024-0.072
		c0.008-0.016,0.008-0.024,0.016-0.04c0.008-0.024,0.024-0.056,0.032-0.08c0.008-0.016,0.008-0.032,0.016-0.04
		c0.008-0.024,0.016-0.04,0.024-0.064c0.008-0.016,0.016-0.04,0.024-0.056c0.008-0.024,0.016-0.048,0.024-0.072
		c0.008-0.016,0.016-0.032,0.016-0.048c0.008-0.024,0.016-0.04,0.024-0.064s0.016-0.04,0.024-0.064
		c0.008-0.016,0.016-0.04,0.024-0.056s0.016-0.032,0.016-0.048c0.008-0.016,0.016-0.04,0.024-0.056
		c0.008-0.024,0.016-0.048,0.032-0.072c0.008-0.016,0.016-0.032,0.024-0.056c0.008-0.016,0.016-0.04,0.016-0.048
		c0.008-0.024,0.016-0.04,0.024-0.064c0.008-0.016,0.016-0.048,0.024-0.072c0.008-0.016,0.016-0.032,0.024-0.056
		c0.008-0.016,0.016-0.04,0.016-0.048c0.008-0.016,0.016-0.04,0.024-0.056c0.008-0.024,0.024-0.048,0.032-0.08
		c0.008-0.016,0.016-0.032,0.016-0.048c0.008-0.016,0.016-0.032,0.016-0.048c0.008-0.016,0.016-0.04,0.024-0.056
		c0.008-0.024,0.016-0.048,0.032-0.08c0.008-0.016,0.008-0.032,0.016-0.048s0.016-0.032,0.016-0.056
		c0.008-0.016,0.016-0.04,0.024-0.056c0.008-0.024,0.024-0.056,0.032-0.08c0.008-0.016,0.008-0.024,0.016-0.04
		c0.008-0.016,0.016-0.04,0.024-0.056s0.016-0.032,0.016-0.048c0.016-0.032,0.024-0.056,0.032-0.088
		c0.008-0.016,0.008-0.024,0.016-0.04c0.008-0.016,0.016-0.04,0.024-0.056s0.008-0.024,0.016-0.04
		c0.016-0.032,0.024-0.064,0.04-0.096c0.008-0.016,0.008-0.032,0.016-0.04c0.016-0.032,0.024-0.064,0.032-0.096
		c0.008-0.016,0.008-0.024,0.016-0.04c0.008-0.016,0.016-0.04,0.024-0.064c0.008-0.008,0.008-0.024,0.016-0.032
		c0.024-0.064,0.056-0.136,0.08-0.2c0-0.008,0.008-0.016,0.008-0.032c0.016-0.04,0.024-0.072,0.04-0.112
		c0-0.008,0.008-0.016,0.008-0.032c0.008-0.016,0.016-0.04,0.024-0.064c0.008-0.008,0.008-0.024,0.016-0.032
		c0.016-0.048,0.032-0.08,0.048-0.128v-0.008c0.008-0.016,0.016-0.048,0.024-0.064c0-0.008,0.008-0.024,0.008-0.032
		c0.016-0.04,0.024-0.072,0.04-0.112c0-0.008,0.008-0.016,0.008-0.024c0.008-0.024,0.016-0.04,0.024-0.064
		c0-0.008,0.008-0.024,0.008-0.032c0.016-0.04,0.024-0.072,0.04-0.112c0-0.008,0.008-0.016,0.008-0.024
		c0.008-0.024,0.016-0.04,0.024-0.064c0-0.008,0.008-0.024,0.008-0.032c0.016-0.032,0.024-0.072,0.04-0.104
		c0.008-0.016,0.008-0.024,0.016-0.04c0.008-0.024,0.016-0.032,0.024-0.056c0.008-0.016,0.008-0.024,0.016-0.04
		c0.016-0.04,0.024-0.064,0.04-0.104c0.008-0.016,0.008-0.024,0.016-0.04c0.008-0.024,0.016-0.032,0.024-0.056
		c0.008-0.016,0.008-0.032,0.016-0.04c0.008-0.032,0.024-0.064,0.032-0.096c0.008-0.016,0.008-0.032,0.016-0.04
		c0.008-0.016,0.016-0.04,0.024-0.056s0.008-0.024,0.016-0.04c0.008-0.032,0.024-0.064,0.032-0.096
		c0.008-0.016,0.008-0.024,0.016-0.04c0.008-0.016,0.016-0.04,0.024-0.056s0.008-0.032,0.016-0.04
		c0.008-0.024,0.024-0.064,0.032-0.088c0.008-0.016,0.016-0.032,0.016-0.048c0.008-0.016,0.008-0.032,0.016-0.048
		c0.008-0.024,0.016-0.048,0.024-0.072s0.016-0.032,0.024-0.064c0.008-0.016,0.008-0.032,0.016-0.048s0.016-0.032,0.016-0.056
		c0.008-0.024,0.016-0.048,0.032-0.08c0.008-0.016,0.016-0.032,0.016-0.056c0.008-0.016,0.016-0.032,0.016-0.048
		c0.008-0.016,0.008-0.032,0.016-0.048c0.008-0.032,0.024-0.056,0.032-0.088c0.008-0.016,0.008-0.024,0.016-0.048
		c0.008-0.016,0.016-0.032,0.016-0.056c0.008-0.016,0.008-0.032,0.016-0.048c0.008-0.032,0.024-0.056,0.032-0.088
		c0.008-0.016,0.008-0.024,0.016-0.048c0.008-0.016,0.016-0.04,0.024-0.056s0.008-0.032,0.016-0.04
		c0.008-0.032,0.024-0.056,0.032-0.088c0.008-0.016,0.008-0.024,0.016-0.04c0.008-0.024,0.016-0.04,0.024-0.064
		c0.008-0.016,0.008-0.024,0.016-0.04c0.008-0.032,0.024-0.064,0.032-0.096c0.008-0.016,0.008-0.024,0.016-0.04
		c0.008-0.024,0.016-0.048,0.024-0.072c0.008-0.016,0.008-0.024,0.008-0.032c0.008-0.032,0.024-0.064,0.032-0.096
		c0.008-0.016,0.008-0.024,0.016-0.032c0.008-0.024,0.016-0.048,0.024-0.08c0.008-0.016,0-0.008,0.008-0.024L451.976,325.88
		L451.976,325.88z M460.12,296.2c-0.984,5.016-2.168,10.064-3.52,14.992l7.712,2.12c1.408-5.12,2.624-10.312,3.656-15.576
		L460.12,296.2L460.12,296.2z M463.784,265.632c-0.232,5.12-0.656,10.288-1.264,15.352l7.944,0.952
		c0.344-2.872,0.632-5.768,0.864-8.68l0,0c0.008-0.08,0.016-0.16,0.016-0.248V273c0.008-0.08,0.016-0.16,0.016-0.24
		c0-0.008,0,0,0-0.008c0.008-0.08,0.016-0.16,0.016-0.24v-0.008c0-0.04,0.008-0.08,0.008-0.112v-0.008c0-0.04,0.008-0.08,0.008-0.12
		v-0.008c0-0.032,0.008-0.072,0.008-0.104c0-0.008,0-0.016,0-0.016c0-0.04,0.008-0.08,0.008-0.112c0,0,0,0,0-0.008
		c0-0.032,0.008-0.072,0.008-0.104c0-0.008,0-0.016,0-0.024c0-0.04,0.008-0.072,0.008-0.112l0,0c0-0.04,0.008-0.072,0.008-0.104
		c0-0.016,0-0.016,0-0.032c0-0.032,0.008-0.064,0.008-0.088c0-0.008,0-0.016,0-0.024c0-0.032,0.008-0.072,0.008-0.104
		c0-0.016,0-0.024,0-0.04c0-0.024,0-0.056,0.008-0.08c0-0.016,0-0.016,0-0.032c0-0.032,0.008-0.072,0.008-0.104
		c0-0.008,0-0.032,0-0.04c0-0.024,0-0.048,0.008-0.064c0-0.016,0-0.032,0-0.048c0-0.032,0.008-0.064,0.008-0.096
		c0-0.016,0-0.032,0-0.048s0-0.04,0.008-0.056c0-0.024,0-0.032,0-0.056s0-0.048,0.008-0.072c0-0.024,0-0.056,0.008-0.08
		c0-0.016,0-0.032,0-0.048c0-0.024,0-0.04,0.008-0.064c0-0.016,0-0.024,0-0.04c0-0.04,0.008-0.072,0.008-0.112
		c0-0.008,0-0.024,0-0.032c0-0.032,0-0.04,0.008-0.072c0-0.008,0-0.024,0-0.032c0-0.048,0.008-0.096,0.008-0.144v-0.008
		c0-0.032,0-0.048,0.008-0.08c0-0.008,0-0.016,0-0.024c0.008-0.08,0.008-0.16,0.016-0.24v-0.016
		c0.008-0.088,0.008-0.168,0.016-0.248l0,0c0.072-1.144,0.128-2.296,0.184-3.448L463.784,265.632L463.784,265.632z M470.896,234.032
		l-7.96,0.8c0.512,5.08,0.848,10.256,0.984,15.376l8-0.216c-0.056-1.928-0.128-3.856-0.232-5.768l0,0
		c-0.008-0.08-0.008-0.16-0.016-0.24c0-0.008,0-0.008,0-0.008c-0.008-0.088-0.008-0.168-0.016-0.248v-0.016
		c-0.008-0.08-0.008-0.16-0.016-0.24c0-0.008,0-0.008,0-0.016c0-0.04-0.008-0.072-0.008-0.112l0,0c0-0.04-0.008-0.08-0.008-0.12
		c0-0.008,0-0.008,0-0.016c0-0.032-0.008-0.072-0.008-0.104v-0.016c0-0.04-0.008-0.08-0.008-0.112v-0.016
		c0-0.032,0-0.064-0.008-0.096c0-0.008,0-0.016,0-0.016c0-0.048-0.008-0.08-0.008-0.12c0,0,0-0.008,0-0.016
		c0-0.032,0-0.064-0.008-0.096c0-0.008,0-0.024,0-0.024c0-0.04-0.008-0.072-0.008-0.112l0,0c0-0.04-0.008-0.072-0.008-0.112
		c0-0.016,0-0.016,0-0.032c0-0.032,0-0.064-0.008-0.096c0,0,0-0.008,0-0.016c0-0.04-0.008-0.072-0.008-0.104
		c0-0.008,0-0.024,0-0.024c0-0.032,0-0.064-0.008-0.088c0-0.016,0-0.016,0-0.032c0-0.032-0.008-0.072-0.008-0.104
		c0-0.016,0-0.024,0-0.04c0-0.024,0-0.048-0.008-0.08c0-0.008,0-0.032,0-0.032c0-0.04-0.008-0.072-0.008-0.112
		c0-0.016,0-0.024,0-0.04c0-0.024,0-0.048-0.008-0.072c0-0.016,0-0.032,0-0.04c0-0.032-0.008-0.064-0.008-0.088
		c0-0.016,0-0.032,0-0.04c0-0.024,0-0.048-0.008-0.072c0-0.016,0-0.032,0-0.048c0-0.024,0-0.048-0.008-0.072
		c0-0.024,0-0.04-0.008-0.064c0-0.024,0-0.048-0.008-0.072c0-0.016,0-0.04,0-0.056s0-0.04,0-0.056s0-0.04,0-0.056
		c0-0.032-0.008-0.064-0.008-0.088s0-0.032,0-0.048s0-0.04,0-0.056c0-0.024,0-0.032,0-0.056c0-0.032-0.008-0.056-0.008-0.088
		c0-0.024,0-0.04-0.008-0.056c0-0.016,0-0.032,0-0.048c0-0.024,0-0.04-0.008-0.056c0-0.016,0-0.032,0-0.048
		c0-0.032-0.008-0.064-0.008-0.096c0-0.016,0-0.032,0-0.048c0-0.024,0-0.04-0.008-0.064c0-0.016,0-0.024,0-0.04
		c0-0.04-0.008-0.08-0.008-0.12c0-0.008,0-0.016,0-0.032c0-0.032,0-0.04-0.008-0.072c0-0.008,0-0.016,0-0.032
		c0-0.04-0.008-0.096-0.008-0.136c0,0,0-0.008,0-0.016c0-0.024,0-0.048-0.008-0.072c0-0.008,0-0.016,0-0.024
		c-0.008-0.08-0.008-0.152-0.016-0.232c0-0.008,0-0.016,0-0.016c-0.008-0.088-0.016-0.16-0.016-0.24v-0.008
		C471.216,237.36,471.064,235.696,470.896,234.032L470.896,234.032z M465.336,202.544l-7.752,1.976
		c1.264,4.952,2.352,10.016,3.24,15.056l7.88-1.392c-0.096-0.552-0.2-1.112-0.304-1.664v-0.008c-0.016-0.08-0.032-0.152-0.048-0.24
		v-0.016c-0.016-0.08-0.032-0.152-0.04-0.232c0-0.008,0-0.016-0.008-0.024c-0.016-0.072-0.032-0.152-0.04-0.216
		c0-0.008-0.008-0.024-0.008-0.032c-0.016-0.072-0.024-0.136-0.04-0.208c0-0.016-0.008-0.032-0.008-0.04
		c0-0.024-0.008-0.04-0.008-0.056c-0.008-0.024-0.008-0.04-0.016-0.064s-0.008-0.048-0.016-0.08c0-0.016-0.008-0.032-0.008-0.048
		c0-0.024-0.008-0.032-0.008-0.056c-0.008-0.032-0.008-0.064-0.016-0.088c0-0.016-0.008-0.032-0.008-0.048
		c-0.008-0.024-0.008-0.04-0.008-0.064c-0.008-0.024-0.008-0.024-0.008-0.048c-0.008-0.032-0.016-0.064-0.016-0.096
		c0-0.016-0.008-0.024-0.008-0.04c-0.008-0.024-0.008-0.048-0.016-0.064c0-0.016-0.008-0.032-0.008-0.048
		c-0.008-0.032-0.016-0.064-0.016-0.096c0-0.016,0-0.016-0.008-0.032c-0.008-0.024-0.008-0.048-0.016-0.08
		c0-0.016-0.008-0.024-0.008-0.04c-0.016-0.024-0.016-0.056-0.024-0.088c0-0.008-0.008-0.024-0.008-0.032
		c-0.008-0.024-0.008-0.056-0.016-0.08c0-0.016-0.008-0.024-0.008-0.04c-0.008-0.032-0.016-0.072-0.024-0.104v-0.016
		c-0.008-0.032-0.016-0.064-0.016-0.096c0-0.016,0-0.016-0.008-0.032c-0.008-0.04-0.016-0.072-0.024-0.112l0,0
		c-0.008-0.032-0.016-0.072-0.024-0.112c0,0,0-0.016-0.008-0.024c-0.016-0.072-0.032-0.152-0.048-0.224v-0.016
		c-0.016-0.072-0.032-0.152-0.048-0.232v-0.016c-0.016-0.08-0.032-0.152-0.048-0.232v-0.008c-0.016-0.08-0.032-0.16-0.048-0.24
		v-0.008c-0.632-3.104-1.328-6.192-2.096-9.248v-0.008c-0.016-0.08-0.04-0.16-0.056-0.24v-0.008c-0.016-0.08-0.04-0.152-0.056-0.232
		v-0.016c-0.016-0.072-0.04-0.152-0.056-0.224l-0.008-0.016c-0.016-0.072-0.04-0.144-0.056-0.216
		C465.336,202.552,465.336,202.552,465.336,202.544L465.336,202.544z M455.16,172.24l-7.376,3.104
		c1.984,4.712,3.816,9.56,5.44,14.408l7.584-2.544c-0.008-0.024-0.016-0.056-0.032-0.08v-0.008c-0.008-0.024-0.016-0.04-0.024-0.072
		c0-0.008-0.008-0.016-0.008-0.032c-0.016-0.04-0.024-0.072-0.04-0.112c-0.008-0.008-0.008-0.024-0.008-0.032
		c-0.008-0.016-0.016-0.04-0.016-0.056c-0.008-0.016-0.008-0.032-0.016-0.04c-0.008-0.024-0.024-0.056-0.032-0.088
		c-0.008-0.016-0.008-0.032-0.016-0.048s-0.016-0.04-0.016-0.056c-0.008-0.016-0.008-0.032-0.016-0.048
		c-0.008-0.024-0.016-0.048-0.024-0.072s-0.016-0.04-0.024-0.056s-0.008-0.032-0.016-0.048c-0.008-0.024-0.016-0.04-0.024-0.064
		s-0.008-0.032-0.024-0.056c-0.008-0.024-0.016-0.048-0.024-0.064c-0.008-0.016-0.008-0.024-0.016-0.04
		c-0.008-0.032-0.016-0.056-0.032-0.088c-0.008-0.016-0.008-0.024-0.016-0.04c-0.008-0.024-0.016-0.056-0.024-0.08
		c-0.008-0.016-0.008-0.024-0.016-0.032c-0.008-0.032-0.024-0.064-0.032-0.096c0-0.008-0.008-0.016-0.008-0.024
		c-0.008-0.032-0.016-0.056-0.032-0.088c0-0.008-0.008-0.024-0.008-0.024c-0.016-0.04-0.024-0.072-0.04-0.112
		c0-0.008,0-0.008-0.008-0.016c-0.008-0.032-0.024-0.064-0.032-0.096c0-0.008-0.008-0.016-0.008-0.024
		c-0.008-0.032-0.024-0.072-0.032-0.104c0-0.008,0-0.008-0.008-0.016c-0.008-0.032-0.024-0.064-0.032-0.096
		c0-0.008-0.008-0.016-0.008-0.024c-0.016-0.032-0.024-0.072-0.04-0.104c0-0.008,0-0.008-0.008-0.016
		c-0.008-0.032-0.024-0.064-0.032-0.096c0-0.008,0-0.008,0-0.008c-0.016-0.04-0.024-0.08-0.04-0.12v-0.008
		c-0.016-0.032-0.024-0.072-0.04-0.104c0-0.008,0-0.008,0-0.008c-0.016-0.04-0.024-0.072-0.04-0.112v-0.008
		c-0.016-0.04-0.024-0.072-0.04-0.112v-0.008c-0.016-0.04-0.024-0.072-0.04-0.112v-0.008c-0.024-0.08-0.056-0.152-0.08-0.232l0,0
		c-0.024-0.08-0.056-0.152-0.08-0.232l0,0c-0.024-0.08-0.056-0.152-0.08-0.232l0,0c-0.024-0.08-0.056-0.16-0.08-0.232
		c0-0.008,0,0,0,0c-0.432-1.216-0.88-2.432-1.336-3.64l0,0c-0.032-0.08-0.056-0.152-0.088-0.232c0-0.008,0,0,0-0.008
		c-0.032-0.08-0.056-0.152-0.088-0.232v-0.008c-0.032-0.072-0.056-0.152-0.088-0.224l-0.008-0.008
		c-0.032-0.072-0.056-0.144-0.088-0.224l-0.008-0.016c-0.032-0.072-0.056-0.144-0.088-0.216l-0.008-0.016
		c-0.024-0.072-0.056-0.144-0.08-0.216c0-0.008,0-0.008-0.008-0.016c-0.024-0.072-0.056-0.144-0.08-0.216
		c0-0.008-0.008-0.016-0.008-0.016c-0.016-0.032-0.024-0.072-0.04-0.104l0,0c-0.016-0.032-0.024-0.072-0.04-0.104l-0.008-0.024
		c-0.016-0.032-0.024-0.072-0.04-0.104c0-0.008-0.008-0.008-0.008-0.016c-0.008-0.032-0.024-0.056-0.032-0.088
		c0-0.008-0.008-0.016-0.008-0.024c-0.016-0.032-0.024-0.064-0.04-0.104c0-0.008-0.008-0.016-0.008-0.016
		c-0.008-0.032-0.024-0.056-0.032-0.088c0-0.008-0.008-0.024-0.008-0.024c-0.016-0.032-0.024-0.064-0.04-0.096
		c-0.008-0.016-0.008-0.016-0.008-0.024c-0.008-0.024-0.024-0.056-0.032-0.08c0-0.008-0.008-0.024-0.008-0.032
		c-0.016-0.032-0.024-0.064-0.04-0.096c-0.008-0.016-0.008-0.016-0.008-0.032c-0.008-0.024-0.016-0.048-0.032-0.072
		c0-0.008-0.008-0.024-0.016-0.032c-0.016-0.032-0.024-0.064-0.04-0.096c-0.008-0.016-0.008-0.024-0.016-0.032
		c-0.008-0.024-0.016-0.048-0.032-0.072c-0.008-0.016-0.008-0.024-0.016-0.032c-0.008-0.032-0.024-0.064-0.032-0.088
		c-0.008-0.016-0.008-0.024-0.016-0.04c-0.008-0.024-0.016-0.04-0.024-0.064c-0.008-0.016-0.008-0.032-0.016-0.04
		c-0.008-0.032-0.024-0.056-0.032-0.088c-0.008-0.016-0.008-0.024-0.016-0.048c-0.008-0.016-0.016-0.04-0.024-0.056
		s-0.016-0.032-0.016-0.048c-0.008-0.032-0.024-0.056-0.032-0.08c-0.008-0.016-0.016-0.032-0.016-0.048
		c-0.008-0.016-0.016-0.032-0.016-0.048c-0.016-0.032-0.016-0.048-0.032-0.08c-0.008-0.016-0.016-0.032-0.016-0.048
		c-0.008-0.016-0.016-0.04-0.024-0.056s-0.008-0.024-0.016-0.04c-0.016-0.032-0.024-0.056-0.04-0.088
		c-0.008-0.016-0.008-0.032-0.016-0.04c-0.008-0.016-0.016-0.04-0.024-0.056s-0.008-0.024-0.016-0.04
		c-0.016-0.032-0.024-0.064-0.04-0.096c-0.008-0.008-0.008-0.024-0.016-0.032c-0.008-0.016-0.016-0.04-0.024-0.064
		c-0.008-0.008-0.008-0.024-0.016-0.032c-0.016-0.04-0.032-0.072-0.04-0.112c0-0.008-0.008-0.016-0.008-0.032
		c-0.008-0.024-0.016-0.04-0.024-0.064c0-0.008-0.008-0.016-0.008-0.024c-0.016-0.04-0.032-0.088-0.048-0.128
		c0,0,0-0.008-0.008-0.016c-0.008-0.024-0.016-0.04-0.024-0.072c0-0.008-0.008-0.008-0.008-0.008
		c-0.016-0.04-0.04-0.096-0.056-0.136l-0.008-0.016c-0.008-0.024-0.016-0.048-0.032-0.072v-0.008
		c-0.024-0.048-0.04-0.088-0.056-0.144v-0.008c-0.032-0.08-0.056-0.144-0.088-0.224v-0.008
		C455.744,173.648,455.456,172.936,455.16,172.24L455.16,172.24z M440.592,143.776l-6.832,4.16c2.664,4.368,5.192,8.896,7.52,13.44
		l7.12-3.648c-0.376-0.728-0.744-1.448-1.128-2.176l0,0c-0.04-0.072-0.072-0.136-0.112-0.208c0-0.008-0.008-0.008-0.008-0.016
		c-0.04-0.072-0.072-0.128-0.104-0.2c0,0,0-0.008-0.008-0.008c-0.04-0.072-0.072-0.128-0.104-0.2c0-0.008-0.008-0.016-0.008-0.024
		c-0.016-0.032-0.04-0.08-0.064-0.112c0-0.008-0.008-0.016-0.008-0.016c-0.016-0.024-0.016-0.04-0.032-0.064
		c-0.008-0.008-0.008-0.016-0.016-0.024c-0.016-0.04-0.04-0.072-0.056-0.112c0-0.008-0.008-0.016-0.008-0.024
		c-0.016-0.024-0.016-0.032-0.032-0.056c-0.008-0.008-0.008-0.024-0.016-0.032c-0.016-0.032-0.032-0.056-0.048-0.096
		c-0.008-0.008-0.016-0.024-0.016-0.032c-0.008-0.016-0.016-0.04-0.032-0.056c-0.008-0.016-0.016-0.024-0.024-0.04
		c-0.016-0.024-0.032-0.056-0.04-0.08c-0.008-0.016-0.016-0.032-0.024-0.048c-0.008-0.008-0.016-0.032-0.024-0.048
		c-0.008-0.024-0.024-0.04-0.032-0.064c-0.008-0.016-0.024-0.04-0.032-0.064c-0.008-0.016-0.016-0.04-0.032-0.056
		c-0.008-0.016-0.016-0.024-0.024-0.04c-0.016-0.024-0.032-0.056-0.048-0.08c-0.008-0.008-0.016-0.024-0.024-0.04
		c-0.008-0.024-0.024-0.04-0.032-0.064c0-0.008-0.016-0.024-0.016-0.032c-0.016-0.032-0.032-0.056-0.048-0.088
		c-0.008-0.008-0.008-0.024-0.016-0.032c-0.008-0.024-0.024-0.04-0.032-0.064c-0.008-0.008-0.008-0.024-0.016-0.032
		c-0.016-0.032-0.032-0.056-0.048-0.088c0-0.008-0.016-0.024-0.016-0.024c-0.016-0.032-0.032-0.056-0.04-0.08
		c-0.008-0.008-0.008-0.008-0.016-0.024c-0.016-0.032-0.032-0.064-0.048-0.096c0-0.008-0.008-0.016-0.016-0.024
		c-0.016-0.032-0.032-0.056-0.048-0.088c0-0.008-0.008-0.008-0.008-0.016c-0.016-0.032-0.032-0.064-0.048-0.096
		c-0.008-0.008-0.008-0.016-0.016-0.024c-0.032-0.064-0.072-0.128-0.104-0.192c-0.008-0.008-0.008-0.008-0.016-0.024
		c-0.016-0.032-0.032-0.064-0.056-0.096l0,0c-0.016-0.032-0.032-0.064-0.056-0.096c0-0.008-0.008-0.016-0.008-0.024
		c-0.016-0.032-0.04-0.064-0.056-0.096c0-0.008,0,0,0-0.008c-0.016-0.032-0.04-0.064-0.056-0.096c0-0.008,0-0.008-0.008-0.016
		c-0.016-0.032-0.04-0.072-0.056-0.104l0,0c-0.016-0.032-0.04-0.072-0.056-0.104l-0.008-0.008c-0.016-0.032-0.04-0.072-0.056-0.104
		l0,0c-0.016-0.032-0.04-0.072-0.056-0.104l0,0c-0.016-0.032-0.04-0.072-0.056-0.104v-0.008c-0.04-0.072-0.08-0.144-0.12-0.216
		c0-0.008,0,0,0,0c-0.04-0.072-0.08-0.144-0.12-0.216v-0.008c-0.04-0.072-0.08-0.144-0.12-0.216l0,0
		c-0.384-0.688-0.776-1.376-1.168-2.064l0,0c-0.184-0.328-0.368-0.648-0.56-0.968c0-0.008,0,0,0,0
		c-0.04-0.072-0.08-0.144-0.12-0.216l-0.008-0.016c-0.04-0.064-0.08-0.136-0.12-0.2c0-0.008-0.008-0.008-0.008-0.016
		c-0.016-0.032-0.04-0.064-0.056-0.096v-0.008c-0.016-0.032-0.04-0.064-0.056-0.096l-0.008-0.016
		c-0.016-0.032-0.04-0.064-0.056-0.096c0-0.008-0.008-0.016-0.008-0.024c-0.016-0.024-0.032-0.048-0.048-0.08
		c0-0.008-0.016-0.024-0.016-0.024c-0.016-0.032-0.032-0.056-0.056-0.088c-0.008-0.008-0.008-0.016-0.016-0.024
		c-0.016-0.024-0.024-0.048-0.04-0.064c-0.008-0.008-0.008-0.016-0.016-0.032c-0.016-0.032-0.032-0.056-0.048-0.088
		c-0.008-0.008-0.016-0.024-0.024-0.04c-0.008-0.016-0.024-0.04-0.032-0.056c-0.008-0.008-0.016-0.024-0.024-0.04
		c-0.016-0.024-0.032-0.056-0.048-0.08c-0.008-0.016-0.016-0.024-0.024-0.048c-0.008-0.016-0.016-0.032-0.024-0.048
		s-0.032-0.048-0.04-0.064c-0.008-0.016-0.024-0.032-0.032-0.056c-0.008-0.016-0.016-0.032-0.032-0.048
		c-0.008-0.016-0.016-0.024-0.024-0.04c-0.016-0.032-0.032-0.056-0.056-0.088c-0.008-0.008-0.016-0.024-0.016-0.032
		c-0.016-0.024-0.024-0.032-0.032-0.056c-0.008-0.008-0.008-0.016-0.016-0.024c-0.024-0.032-0.048-0.08-0.064-0.112l-0.008-0.008
		C441.472,145.216,441.04,144.504,440.592,143.776L440.592,143.776z M421.992,117.776l-6.144,5.12
		c3.28,3.928,6.448,8.032,9.424,12.192l6.504-4.656c-2.624-3.664-5.352-7.24-8.192-10.728l0,0c-0.048-0.064-0.104-0.128-0.152-0.192
		l-0.008-0.008c-0.048-0.056-0.096-0.12-0.144-0.176c-0.008-0.008-0.016-0.016-0.016-0.024c-0.024-0.024-0.048-0.056-0.064-0.08
		c-0.008-0.008-0.008-0.008-0.016-0.016c-0.016-0.024-0.04-0.048-0.056-0.072c-0.008-0.008-0.016-0.024-0.024-0.024
		c-0.024-0.024-0.04-0.048-0.064-0.08c-0.008-0.008-0.016-0.024-0.024-0.032c-0.016-0.016-0.032-0.032-0.04-0.048
		c-0.008-0.008-0.024-0.024-0.032-0.04c-0.016-0.024-0.04-0.048-0.056-0.072c-0.016-0.016-0.024-0.024-0.032-0.04
		c-0.008-0.008-0.016-0.024-0.032-0.032c-0.024-0.032-0.048-0.064-0.08-0.096c-0.008-0.008-0.008-0.008-0.008-0.016
		c-0.016-0.024-0.024-0.032-0.048-0.056c-0.008-0.008-0.008-0.016-0.016-0.016C422.44,118.32,422.216,118.048,421.992,117.776
		L421.992,117.776z M399.768,94.792l-5.328,5.968c3.816,3.408,7.552,7,11.112,10.672l5.752-5.56c-1.04-1.08-2.096-2.144-3.16-3.2
		c-0.008-0.008,0,0-0.008-0.008c-0.056-0.056-0.112-0.112-0.168-0.168c-0.008-0.008-0.008-0.008-0.008-0.008
		c-0.056-0.056-0.104-0.104-0.16-0.16c-0.008-0.008-0.008-0.008-0.016-0.016c-0.024-0.024-0.048-0.048-0.08-0.072l-0.008-0.008
		c-0.024-0.024-0.04-0.04-0.064-0.064c-0.008-0.008-0.016-0.016-0.016-0.016c-0.032-0.032-0.056-0.048-0.08-0.072
		c-0.008-0.008-0.016-0.016-0.024-0.024c-0.016-0.016-0.032-0.032-0.048-0.048s-0.016-0.016-0.032-0.032
		c-0.024-0.024-0.04-0.04-0.064-0.064c-0.016-0.016-0.016-0.016-0.032-0.032c-0.016-0.016-0.024-0.024-0.04-0.04
		c-0.016-0.016-0.024-0.024-0.04-0.04c-0.024-0.024-0.04-0.04-0.064-0.056c-0.016-0.016-0.024-0.024-0.04-0.04
		c-0.008-0.008-0.024-0.016-0.032-0.032c-0.032-0.032-0.056-0.048-0.08-0.08c-0.008-0.008-0.016-0.016-0.024-0.016
		c-0.016-0.016-0.032-0.024-0.048-0.048c-0.008-0.008-0.016-0.016-0.024-0.024c-0.032-0.032-0.056-0.056-0.088-0.08
		c-0.008-0.008-0.008-0.008-0.016-0.016c-0.016-0.016-0.032-0.032-0.056-0.048l-0.008-0.008c-0.04-0.04-0.064-0.064-0.104-0.096
		l-0.008-0.008c-0.056-0.056-0.112-0.104-0.168-0.16h-0.008c-1.376-1.336-2.768-2.648-4.176-3.952l0,0
		c-0.056-0.056-0.112-0.104-0.176-0.16l-0.008-0.008c-0.056-0.056-0.112-0.104-0.168-0.16c-0.008,0-0.008-0.008-0.016-0.008
		c-0.032-0.032-0.072-0.064-0.104-0.096h-0.008c-0.024-0.024-0.032-0.032-0.056-0.048c-0.008-0.008-0.016-0.016-0.024-0.024
		c-0.032-0.024-0.056-0.048-0.088-0.08c-0.008-0.008-0.016-0.016-0.024-0.024c-0.016-0.016-0.032-0.024-0.048-0.048
		c-0.008-0.008-0.016-0.016-0.024-0.024c-0.024-0.024-0.048-0.048-0.08-0.072c-0.008-0.008-0.024-0.024-0.032-0.032
		c-0.016-0.016-0.032-0.024-0.048-0.04s-0.024-0.024-0.04-0.04c-0.024-0.016-0.04-0.04-0.064-0.056
		c-0.016-0.008-0.024-0.024-0.04-0.032c-0.016-0.016-0.024-0.024-0.04-0.032c-0.024-0.024-0.048-0.04-0.064-0.064
		c-0.008-0.008-0.024-0.024-0.032-0.032c-0.016-0.016-0.032-0.032-0.048-0.04c-0.008-0.008-0.024-0.024-0.032-0.032
		c-0.024-0.024-0.048-0.04-0.072-0.064c-0.008-0.008-0.016-0.016-0.032-0.024c-0.016-0.016-0.04-0.032-0.056-0.048
		c-0.008-0.008-0.016-0.016-0.024-0.024c-0.024-0.024-0.048-0.048-0.072-0.072c-0.008-0.008-0.016-0.016-0.024-0.024
		c-0.024-0.024-0.048-0.04-0.072-0.064l-0.008-0.008c-0.024-0.024-0.056-0.048-0.08-0.072c-0.008-0.008-0.008-0.008-0.024-0.016
		c-0.024-0.024-0.056-0.048-0.08-0.072l-0.008-0.008c-0.024-0.024-0.056-0.048-0.08-0.072c-0.008-0.008-0.008-0.008-0.016-0.016
		c-0.032-0.024-0.056-0.048-0.088-0.08c-0.008-0.008,0,0,0,0c-0.032-0.024-0.056-0.056-0.088-0.08c-0.008-0.008,0,0,0,0
		c-0.032-0.032-0.064-0.056-0.096-0.088l0,0c-0.032-0.024-0.064-0.056-0.088-0.08l0,0C399.952,94.96,399.856,94.872,399.768,94.792
		L399.768,94.792z M374.408,75.32l-4.392,6.688c4.272,2.808,8.496,5.808,12.56,8.928l4.872-6.344
		c-1.4-1.072-2.808-2.128-4.232-3.168l-0.008-0.008c-0.04-0.032-0.072-0.056-0.112-0.08c-0.008,0-0.008-0.008-0.016-0.008
		c-0.024-0.016-0.04-0.024-0.056-0.04c-0.008,0-0.008-0.008-0.008-0.008c-0.04-0.024-0.072-0.056-0.104-0.08
		c-0.008-0.008-0.016-0.016-0.024-0.016c-0.016-0.008-0.04-0.032-0.056-0.04c-0.008-0.008-0.008-0.008-0.008-0.008
		c-0.04-0.032-0.072-0.056-0.104-0.08c-0.008-0.008-0.016-0.016-0.024-0.024c-0.016-0.008-0.04-0.024-0.056-0.04
		c-0.008-0.008-0.024-0.016-0.032-0.024c-0.024-0.016-0.056-0.04-0.08-0.056c-0.016-0.008-0.024-0.016-0.04-0.024
		c-0.016-0.008-0.032-0.024-0.048-0.04c-0.024-0.016-0.048-0.032-0.064-0.048c-0.016-0.008-0.024-0.016-0.04-0.032
		c-0.016-0.008-0.032-0.024-0.048-0.032c-0.016-0.008-0.032-0.024-0.048-0.04c-0.024-0.016-0.04-0.032-0.064-0.048
		c-0.008-0.008-0.024-0.016-0.04-0.024c-0.016-0.016-0.04-0.032-0.056-0.04s-0.024-0.016-0.04-0.024
		c-0.024-0.016-0.048-0.032-0.072-0.048c-0.008-0.008-0.024-0.016-0.032-0.024c-0.024-0.016-0.048-0.032-0.072-0.048
		c-0.008-0.008-0.016-0.016-0.032-0.024c-0.024-0.016-0.048-0.032-0.072-0.048c-0.008-0.008-0.016-0.008-0.024-0.016
		c-0.032-0.024-0.056-0.04-0.088-0.064c-0.008,0-0.008-0.008-0.016-0.008c-0.024-0.016-0.056-0.04-0.08-0.056
		c-0.008-0.008-0.016-0.008-0.016-0.016c-0.032-0.024-0.056-0.04-0.088-0.064c-0.008-0.008-0.008-0.008-0.016-0.008
		c-0.032-0.024-0.056-0.04-0.08-0.056c-0.008,0-0.008-0.008-0.016-0.008c-0.032-0.024-0.064-0.048-0.096-0.064L381.232,80
		c-0.032-0.024-0.064-0.048-0.096-0.064h-0.008c-0.032-0.024-0.064-0.048-0.096-0.072c-0.008,0,0,0-0.008-0.008
		c-0.064-0.048-0.136-0.096-0.2-0.144l0,0c-0.064-0.048-0.136-0.096-0.2-0.144l0,0C378.568,78.104,376.504,76.696,374.408,75.32
		L374.408,75.32z M346.456,59.8l-3.352,7.264c4.64,2.144,9.264,4.488,13.736,6.976l3.88-7c-0.008,0,0,0-0.008,0
		c-0.072-0.04-0.144-0.08-0.208-0.12c-0.008,0,0,0-0.008-0.008c-0.072-0.04-0.136-0.08-0.208-0.112l-0.008-0.008
		c-0.072-0.04-0.136-0.08-0.208-0.112l-0.008-0.008c-0.064-0.04-0.136-0.072-0.208-0.112c0,0-0.008-0.008-0.016-0.008
		c-0.032-0.016-0.064-0.04-0.104-0.056c-0.008,0,0,0,0,0c-0.032-0.016-0.064-0.032-0.096-0.056l-0.016-0.008
		c-0.032-0.016-0.064-0.032-0.104-0.056c-0.008,0-0.008,0-0.008-0.008c-0.032-0.016-0.056-0.032-0.088-0.048
		c-0.008,0-0.016-0.008-0.024-0.008c-0.032-0.016-0.064-0.032-0.096-0.056c-0.008,0-0.016-0.008-0.016-0.008
		c-0.024-0.016-0.056-0.032-0.08-0.048c-0.008,0-0.016-0.008-0.024-0.008c-0.032-0.016-0.064-0.032-0.096-0.048
		c-0.008,0-0.016-0.008-0.024-0.016c-0.024-0.016-0.048-0.024-0.072-0.04c-0.008-0.008-0.016-0.008-0.024-0.016
		c-0.032-0.016-0.064-0.032-0.088-0.048l-0.032-0.016c-0.024-0.016-0.048-0.024-0.072-0.04c-0.008-0.008-0.016-0.008-0.024-0.016
		c-0.032-0.016-0.056-0.032-0.088-0.048c-0.008-0.008-0.024-0.016-0.032-0.016c-0.024-0.008-0.04-0.024-0.064-0.032
		c-0.016-0.008-0.024-0.016-0.04-0.024c-0.024-0.016-0.048-0.024-0.08-0.04c-0.008-0.008-0.024-0.016-0.04-0.024
		c-0.024-0.008-0.04-0.024-0.064-0.032c-0.008-0.008-0.04-0.024-0.048-0.024c-0.024-0.008-0.04-0.024-0.064-0.032
		c-0.008-0.008-0.032-0.016-0.048-0.024s-0.032-0.016-0.048-0.024c-0.024-0.016-0.048-0.024-0.072-0.04
		c-0.016-0.008-0.032-0.016-0.04-0.024c-0.016-0.008-0.032-0.016-0.048-0.024s-0.032-0.016-0.048-0.024
		c-0.024-0.016-0.056-0.032-0.08-0.04c-0.016-0.008-0.032-0.016-0.048-0.024s-0.032-0.016-0.048-0.024s-0.024-0.016-0.04-0.024
		c-0.032-0.016-0.064-0.032-0.096-0.048c-0.008-0.008-0.016-0.008-0.032-0.016c-0.016-0.008-0.04-0.024-0.056-0.032h-0.008
		c-0.04-0.024-0.08-0.048-0.128-0.064c-0.008-0.008-0.016-0.008-0.024-0.008c-0.064-0.032-0.136-0.072-0.2-0.104
		c0,0-0.008,0-0.008-0.008c-0.072-0.04-0.136-0.072-0.208-0.112c-0.008,0-0.008-0.008-0.016-0.008
		c-0.072-0.064-0.136-0.096-0.208-0.128h-0.008c-0.072-0.04-0.136-0.072-0.208-0.112l0,0c-1.88-0.992-3.768-1.952-5.68-2.888
		c-0.008,0-0.008-0.008-0.016-0.008c-0.048-0.024-0.088-0.04-0.136-0.064l0,0c-0.024-0.008-0.048-0.024-0.072-0.032
		c-0.008,0-0.008-0.008-0.016-0.008c-0.04-0.016-0.088-0.04-0.12-0.056c-0.008,0-0.016-0.008-0.016-0.008
		c-0.024-0.008-0.04-0.016-0.064-0.032c-0.008-0.008-0.024-0.008-0.032-0.016c-0.04-0.032-0.064-0.04-0.096-0.056
		c-0.016-0.008-0.024-0.016-0.04-0.016c-0.016-0.008-0.032-0.016-0.056-0.024c-0.016-0.008-0.024-0.016-0.04-0.016
		c-0.032-0.016-0.056-0.024-0.088-0.04c-0.016-0.008-0.032-0.016-0.04-0.024c-0.016-0.008-0.04-0.016-0.048-0.024
		c-0.024-0.016-0.056-0.024-0.08-0.04c-0.016-0.008-0.032-0.016-0.04-0.016c-0.024-0.008-0.04-0.024-0.064-0.032
		c-0.008,0-0.032-0.016-0.032-0.016c-0.032-0.016-0.064-0.032-0.096-0.048c-0.016-0.008-0.016-0.008-0.024-0.008
		c-0.024-0.016-0.056-0.024-0.08-0.04c-0.008,0-0.016-0.008-0.024-0.008c-0.032-0.016-0.064-0.032-0.096-0.048
		c-0.008,0-0.008-0.008-0.016-0.008c-0.032-0.016-0.064-0.032-0.096-0.048l-0.016-0.008c-0.032-0.016-0.072-0.032-0.104-0.048
		c-0.008,0-0.008,0-0.008,0c-0.08-0.04-0.152-0.072-0.224-0.104l0,0C348.128,60.576,347.296,60.184,346.456,59.8L346.456,59.8z
		 M316.52,48.592l-2.24,7.68c4.912,1.432,9.824,3.064,14.616,4.856l2.8-7.496c-0.624-0.232-1.248-0.464-1.872-0.688l0,0
		c-0.08-0.024-0.152-0.056-0.232-0.08h-0.008c-0.04-0.016-0.072-0.024-0.112-0.04h-0.008c-0.032-0.016-0.064-0.024-0.104-0.04
		c0,0-0.008-0.008-0.016-0.008c-0.032-0.016-0.072-0.024-0.104-0.04c-0.008,0-0.016-0.008-0.024-0.008
		c-0.032-0.008-0.056-0.024-0.088-0.032c-0.008,0-0.016-0.008-0.024-0.008c-0.032-0.008-0.064-0.024-0.096-0.032
		c-0.008,0-0.024-0.008-0.032-0.008c-0.024-0.008-0.048-0.016-0.072-0.024c-0.016-0.008-0.024-0.008-0.04-0.016
		c-0.032-0.008-0.056-0.024-0.088-0.032c-0.016-0.008-0.032-0.008-0.04-0.016c-0.016-0.008-0.04-0.016-0.056-0.024
		s-0.032-0.008-0.048-0.016c-0.032-0.008-0.056-0.024-0.088-0.032c-0.016-0.008-0.032-0.008-0.048-0.016s-0.032-0.008-0.048-0.016
		s-0.032-0.008-0.048-0.016c-0.024-0.008-0.056-0.016-0.08-0.032c-0.016-0.008-0.04-0.016-0.056-0.016
		c-0.016-0.008-0.024-0.008-0.04-0.016c-0.04-0.016-0.072-0.024-0.112-0.04c-0.008,0-0.016-0.008-0.024-0.008
		c-0.016-0.008-0.04-0.016-0.064-0.024c-0.008,0-0.016-0.008-0.032-0.008c-0.064-0.024-0.144-0.048-0.208-0.072
		c-0.008,0-0.016-0.008-0.024-0.008c-0.072-0.024-0.144-0.048-0.216-0.072c-0.008,0-0.008,0-0.016-0.008
		c-0.08-0.024-0.144-0.048-0.224-0.08h-0.008c-2.24-0.784-4.488-1.528-6.76-2.24l0,0c-0.08-0.024-0.152-0.048-0.232-0.072h-0.008
		c-0.08-0.024-0.152-0.048-0.232-0.072h-0.008c-0.056-0.016-0.104-0.032-0.152-0.048l0,0c-0.024-0.008-0.048-0.016-0.08-0.024
		h-0.008c-0.056-0.016-0.096-0.032-0.144-0.048h-0.008c-0.024-0.008-0.04-0.016-0.072-0.024c-0.008,0-0.016-0.008-0.024-0.008
		c-0.04-0.016-0.088-0.032-0.128-0.04c-0.008,0-0.008,0-0.008,0c-0.032-0.008-0.048-0.016-0.08-0.024c-0.008,0-0.016,0-0.016-0.008
		c-0.04-0.016-0.088-0.024-0.128-0.04c-0.008,0-0.016-0.008-0.024-0.008c-0.024-0.008-0.04-0.016-0.064-0.024
		c-0.008,0-0.024-0.008-0.032-0.008c-0.04-0.016-0.064-0.024-0.104-0.032c-0.016,0-0.024-0.008-0.04-0.008
		c-0.024-0.008-0.032-0.008-0.064-0.016c-0.008,0-0.024-0.008-0.032-0.008c-0.04-0.016-0.064-0.016-0.104-0.032
		c-0.016-0.008-0.024-0.008-0.04-0.008c-0.016-0.008-0.04-0.016-0.064-0.016c-0.016,0-0.024-0.008-0.04-0.008
		c-0.032-0.008-0.072-0.024-0.104-0.032c-0.016,0-0.024-0.008-0.04-0.008c-0.016-0.008-0.04-0.016-0.064-0.016
		c-0.016-0.008-0.032-0.008-0.048-0.016c-0.024-0.008-0.064-0.016-0.088-0.024c-0.016-0.008-0.032-0.008-0.048-0.016
		s-0.04-0.016-0.056-0.016c-0.024-0.008-0.04-0.016-0.064-0.016c-0.016-0.008-0.048-0.016-0.072-0.024
		c-0.016-0.008-0.04-0.008-0.056-0.016c-0.016,0-0.04-0.008-0.048-0.016c-0.024-0.008-0.048-0.016-0.072-0.024
		c-0.016-0.008-0.04-0.008-0.056-0.016c-0.024-0.008-0.04-0.016-0.064-0.016c-0.016-0.008-0.032-0.008-0.048-0.016
		c-0.024-0.008-0.056-0.016-0.08-0.024c-0.016-0.008-0.032-0.008-0.048-0.016c-0.024-0.008-0.04-0.016-0.064-0.016
		c-0.016,0-0.032-0.008-0.048-0.016c-0.032-0.008-0.064-0.016-0.088-0.024c-0.016,0-0.024-0.008-0.04-0.008
		c-0.024-0.008-0.04-0.016-0.064-0.016c-0.016,0-0.032-0.008-0.04-0.016c-0.032-0.008-0.064-0.016-0.096-0.024
		c-0.016,0-0.024-0.008-0.032-0.008c-0.024-0.008-0.048-0.016-0.072-0.024c-0.016,0-0.024-0.008-0.04-0.008
		c-0.032-0.008-0.064-0.016-0.096-0.032c-0.016,0-0.024-0.008-0.032-0.008c-0.024-0.008-0.048-0.016-0.072-0.024
		c-0.008,0-0.032-0.008-0.04-0.008c-0.032-0.008-0.064-0.016-0.096-0.032c-0.016,0-0.016-0.008-0.032-0.008
		c-0.024-0.008-0.048-0.016-0.072-0.024C316.536,48.6,316.52,48.592,316.52,48.592L316.52,48.592z M285.24,41.96l-1.072,7.928
		c5.072,0.688,10.176,1.568,15.176,2.632L301,44.696c-2.048-0.432-4.104-0.84-6.176-1.216c-0.008,0-0.008,0-0.008,0
		c-0.032-0.008-0.048-0.008-0.08-0.016h-0.016c-0.04-0.008-0.088-0.016-0.128-0.024c-0.008,0-0.024-0.008-0.032-0.008
		c-0.024,0-0.04-0.008-0.064-0.008c-0.016,0-0.024-0.008-0.04-0.008c-0.024-0.008-0.072-0.016-0.096-0.016
		c-0.016,0-0.032-0.008-0.056-0.008c-0.016,0-0.04-0.008-0.048-0.008c-0.024,0-0.04-0.008-0.064-0.008s-0.04-0.008-0.056-0.008
		c-0.024-0.008-0.048-0.008-0.08-0.016c-0.016,0-0.024-0.008-0.04-0.008c-0.024-0.008-0.056-0.008-0.08-0.016
		c-0.008,0-0.024,0-0.024-0.008c-0.032-0.008-0.072-0.016-0.104-0.016c-0.008,0-0.024-0.008-0.032-0.008
		c-0.032-0.008-0.056-0.008-0.088-0.016c-0.008,0-0.016,0-0.024,0c-0.04-0.008-0.072-0.016-0.112-0.016c-0.008,0-0.016,0-0.016,0
		c-0.032-0.008-0.072-0.016-0.104-0.016h-0.008c-0.04-0.008-0.08-0.016-0.12-0.024c0,0,0,0-0.008,0
		c-0.04-0.008-0.072-0.016-0.112-0.016h-0.008C290.544,42.728,287.904,42.32,285.24,41.96L285.24,41.96z M256,40v8
		c4.272,0,8.592,0.128,12.84,0.392l0.488-7.984c-2.08-0.128-4.176-0.224-6.272-0.288l0,0c-0.032,0-0.056,0-0.088,0h-0.008
		c-0.112,0-0.224-0.008-0.336-0.008l0,0c-0.032,0-0.056,0-0.08,0h-0.008c-0.032,0-0.048,0-0.08,0h-0.008
		c-0.112,0-0.216-0.008-0.32-0.008c-0.008,0-0.016,0-0.024,0c-0.024,0-0.048,0-0.064,0c-0.008,0-0.016,0-0.024,0
		c-0.024,0-0.048,0-0.064,0c-0.008,0-0.016,0-0.024,0c-0.08,0-0.16-0.008-0.24-0.008h-0.008c-0.024,0-0.04,0-0.064,0
		c-0.008,0-0.024,0-0.032,0c-0.024,0-0.04,0-0.056,0c-0.008,0-0.024,0-0.032,0c-0.024,0-0.04,0-0.064,0c-0.008,0-0.024,0-0.032,0
		c-0.024,0-0.04,0-0.064,0c-0.008,0-0.016,0-0.024,0c-0.04,0-0.08,0-0.128,0c-0.008,0-0.016,0-0.024,0c-0.024,0-0.04,0-0.056,0
		s-0.024,0-0.04,0c-0.024,0-0.04,0-0.056,0s-0.024,0-0.04,0c-0.016,0-0.04,0-0.056,0s-0.024,0-0.04,0c-0.024,0-0.032,0-0.056,0
		c-0.008,0-0.024,0-0.032,0c-0.04,0-0.072,0-0.104,0c-0.016,0-0.024,0-0.04,0c-0.024,0-0.032,0-0.056,0c-0.016,0-0.032,0-0.04,0
		c-0.016,0-0.04,0-0.048,0c-0.016,0-0.032,0-0.04,0c-0.016,0-0.032,0-0.048,0s-0.032,0-0.048,0s-0.032,0-0.048,0s-0.032,0-0.056,0
		c-0.032,0-0.048,0-0.08,0c-0.016,0-0.04,0-0.056,0s-0.032,0-0.048,0s-0.032,0-0.048,0s-0.032,0-0.048,0s-0.032,0-0.048,0
		s-0.032,0-0.048,0s-0.032,0-0.048,0s-0.032,0-0.048,0s-0.032,0-0.048,0c-0.032,0-0.048,0-0.08,0c-0.016,0-0.04,0-0.056,0
		s-0.032,0-0.048,0s-0.032,0-0.048,0s-0.032,0-0.048,0s-0.032,0-0.048,0s-0.032,0-0.048,0s-0.032,0-0.048,0s-0.032,0-0.048,0
		c-0.024,0-0.048,0-0.072,0c-0.016,0-0.024,0-0.04,0c-0.024,0-0.048,0-0.072,0c-0.016,0-0.024,0-0.04,0c-0.016,0-0.04,0-0.056,0
		s-0.024,0-0.04,0c-0.016,0-0.04,0-0.056,0s-0.024,0-0.04,0c-0.024,0-0.04,0-0.064,0c-0.016,0-0.024,0-0.04,0
		c-0.024,0-0.056,0-0.08,0c-0.016,0-0.016,0-0.032,0c-0.024,0-0.048,0-0.08,0c-0.016,0-0.024,0-0.04,0c-0.016,0-0.04,0-0.056,0
		s-0.024,0-0.04,0c-0.016,0-0.04,0-0.056,0s-0.024,0-0.04,0c-0.016,0-0.04,0-0.056,0s-0.024,0-0.04,0c-0.032,0-0.064,0-0.088,0
		h-0.008c-0.032,0-0.064,0-0.096,0c-0.016,0-0.016,0-0.032,0c-0.024,0-0.04,0-0.064,0c-0.016,0-0.024,0-0.04,0
		c-0.016,0-0.04,0-0.056,0s-0.024,0-0.04,0c-0.024,0-0.04,0-0.064,0c-0.016,0-0.024,0-0.04,0c-0.032,0-0.064,0-0.088,0H257.6
		c-0.032,0-0.064,0-0.096,0c-0.016,0-0.016,0-0.032,0c-0.024,0-0.04,0-0.064,0c-0.016,0-0.024,0-0.032,0c-0.024,0-0.04,0-0.064,0
		c-0.016,0-0.024,0-0.04,0c-0.024,0-0.048,0-0.064,0s-0.016,0-0.032,0c-0.064,0-0.128,0-0.192,0c-0.016,0-0.016,0-0.032,0
		c-0.024,0-0.04,0-0.064,0c-0.016,0-0.024,0-0.04,0c-0.024,0-0.04,0-0.064,0c-0.016,0-0.024,0-0.032,0c-0.024,0-0.048,0-0.064,0
		s-0.016,0-0.032,0c-0.032,0-0.064,0-0.096,0l0,0c-0.032,0-0.064,0-0.096,0c-0.016,0-0.024,0-0.032,0c-0.024,0-0.04,0-0.064,0
		c-0.016,0-0.024,0-0.04,0c-0.024,0-0.04,0-0.064,0c-0.016,0-0.024,0-0.04,0c-0.024,0-0.048,0-0.072,0c-0.016,0-0.016,0-0.032,0
		C256.064,40,256.032,40,256,40L256,40L256,40z"/>
</g>
<g>
	<rect x="252" style="fill:#222020;" width="8" height="40"/>
	<rect x="252" y="472" style="fill:#222020;" width="8" height="40"/>
	<rect y="252" style="fill:#222020;" width="40" height="8"/>
	<rect x="472" y="252" style="fill:#222020;" width="40" height="8"/>
</g>
<polygon style="fill:#C40606;" points="256,362.84 142.424,322.104 142.424,193.368 256,234.104 "/>
<polygon style="fill:#E21B1B;" points="256,362.84 369.576,322.104 369.576,193.368 256,234.104 "/>
<polygon style="fill:#F91E1E;" points="142.424,193.368 248.96,149.16 369.576,193.368 256,234.104 "/>
<g>
</g>
<g>
</g>
<g>
</g>
<g>
</g>
<g>
</g>
<g>
</g>
<g>
</g>
<g>
</g>
<g>
</g>
<g>
</g>
<g>
</g>
<g>
</g>
<g>
</g>
<g>
</g>
<g>
</g>
</svg>
